<?xml version="1.0" encoding="utf-8" standalone="no"?>
<!DOCTYPE svg PUBLIC "-//W3C//DTD SVG 1.1//EN"
  "http://www.w3.org/Graphics/SVG/1.1/DTD/svg11.dtd">
<!-- Created with matplotlib (https://matplotlib.org/) -->
<svg height="432pt" version="1.1" viewBox="0 0 576 432" width="576pt" xmlns="http://www.w3.org/2000/svg" xmlns:xlink="http://www.w3.org/1999/xlink">
 <defs>
  <style type="text/css">
*{stroke-linecap:butt;stroke-linejoin:round;}
  </style>
 </defs>
 <g id="figure_1">
  <g id="patch_1">
   <path d="M 0 432 
L 576 432 
L 576 0 
L 0 0 
z
" style="fill:#ffffff;"/>
  </g>
  <g id="axes_1">
   <g id="patch_2">
    <path d="M 72 384.48 
L 518.4 384.48 
L 518.4 51.84 
L 72 51.84 
z
" style="fill:#eaeaf2;"/>
   </g>
   <g id="matplotlib.axis_1">
    <g id="xtick_1">
     <g id="line2d_1">
      <path clip-path="url(#p9e561812e4)" d="M 72 384.48 
L 72 51.84 
" style="fill:none;stroke:#ffffff;stroke-linecap:round;"/>
     </g>
     <g id="text_1">
      <!-- 0 -->
      <defs>
       <path d="M 31.78125 66.40625 
Q 24.171875 66.40625 20.328125 58.90625 
Q 16.5 51.421875 16.5 36.375 
Q 16.5 21.390625 20.328125 13.890625 
Q 24.171875 6.390625 31.78125 6.390625 
Q 39.453125 6.390625 43.28125 13.890625 
Q 47.125 21.390625 47.125 36.375 
Q 47.125 51.421875 43.28125 58.90625 
Q 39.453125 66.40625 31.78125 66.40625 
z
M 31.78125 74.21875 
Q 44.046875 74.21875 50.515625 64.515625 
Q 56.984375 54.828125 56.984375 36.375 
Q 56.984375 17.96875 50.515625 8.265625 
Q 44.046875 -1.421875 31.78125 -1.421875 
Q 19.53125 -1.421875 13.0625 8.265625 
Q 6.59375 17.96875 6.59375 36.375 
Q 6.59375 54.828125 13.0625 64.515625 
Q 19.53125 74.21875 31.78125 74.21875 
z
" id="DejaVuSans-48"/>
      </defs>
      <g style="fill:#262626;" transform="translate(68.500625 402.338281)scale(0.11 -0.11)">
       <use xlink:href="#DejaVuSans-48"/>
      </g>
     </g>
    </g>
    <g id="xtick_2">
     <g id="line2d_2">
      <path clip-path="url(#p9e561812e4)" d="M 138.292661 384.48 
L 138.292661 51.84 
" style="fill:none;stroke:#ffffff;stroke-linecap:round;"/>
     </g>
     <g id="text_2">
      <!-- 20 -->
      <defs>
       <path d="M 19.1875 8.296875 
L 53.609375 8.296875 
L 53.609375 0 
L 7.328125 0 
L 7.328125 8.296875 
Q 12.9375 14.109375 22.625 23.890625 
Q 32.328125 33.6875 34.8125 36.53125 
Q 39.546875 41.84375 41.421875 45.53125 
Q 43.3125 49.21875 43.3125 52.78125 
Q 43.3125 58.59375 39.234375 62.25 
Q 35.15625 65.921875 28.609375 65.921875 
Q 23.96875 65.921875 18.8125 64.3125 
Q 13.671875 62.703125 7.8125 59.421875 
L 7.8125 69.390625 
Q 13.765625 71.78125 18.9375 73 
Q 24.125 74.21875 28.421875 74.21875 
Q 39.75 74.21875 46.484375 68.546875 
Q 53.21875 62.890625 53.21875 53.421875 
Q 53.21875 48.921875 51.53125 44.890625 
Q 49.859375 40.875 45.40625 35.40625 
Q 44.1875 33.984375 37.640625 27.21875 
Q 31.109375 20.453125 19.1875 8.296875 
z
" id="DejaVuSans-50"/>
      </defs>
      <g style="fill:#262626;" transform="translate(131.293911 402.338281)scale(0.11 -0.11)">
       <use xlink:href="#DejaVuSans-50"/>
       <use x="63.623047" xlink:href="#DejaVuSans-48"/>
      </g>
     </g>
    </g>
    <g id="xtick_3">
     <g id="line2d_3">
      <path clip-path="url(#p9e561812e4)" d="M 204.585322 384.48 
L 204.585322 51.84 
" style="fill:none;stroke:#ffffff;stroke-linecap:round;"/>
     </g>
     <g id="text_3">
      <!-- 40 -->
      <defs>
       <path d="M 37.796875 64.3125 
L 12.890625 25.390625 
L 37.796875 25.390625 
z
M 35.203125 72.90625 
L 47.609375 72.90625 
L 47.609375 25.390625 
L 58.015625 25.390625 
L 58.015625 17.1875 
L 47.609375 17.1875 
L 47.609375 0 
L 37.796875 0 
L 37.796875 17.1875 
L 4.890625 17.1875 
L 4.890625 26.703125 
z
" id="DejaVuSans-52"/>
      </defs>
      <g style="fill:#262626;" transform="translate(197.586572 402.338281)scale(0.11 -0.11)">
       <use xlink:href="#DejaVuSans-52"/>
       <use x="63.623047" xlink:href="#DejaVuSans-48"/>
      </g>
     </g>
    </g>
    <g id="xtick_4">
     <g id="line2d_4">
      <path clip-path="url(#p9e561812e4)" d="M 270.877983 384.48 
L 270.877983 51.84 
" style="fill:none;stroke:#ffffff;stroke-linecap:round;"/>
     </g>
     <g id="text_4">
      <!-- 60 -->
      <defs>
       <path d="M 33.015625 40.375 
Q 26.375 40.375 22.484375 35.828125 
Q 18.609375 31.296875 18.609375 23.390625 
Q 18.609375 15.53125 22.484375 10.953125 
Q 26.375 6.390625 33.015625 6.390625 
Q 39.65625 6.390625 43.53125 10.953125 
Q 47.40625 15.53125 47.40625 23.390625 
Q 47.40625 31.296875 43.53125 35.828125 
Q 39.65625 40.375 33.015625 40.375 
z
M 52.59375 71.296875 
L 52.59375 62.3125 
Q 48.875 64.0625 45.09375 64.984375 
Q 41.3125 65.921875 37.59375 65.921875 
Q 27.828125 65.921875 22.671875 59.328125 
Q 17.53125 52.734375 16.796875 39.40625 
Q 19.671875 43.65625 24.015625 45.921875 
Q 28.375 48.1875 33.59375 48.1875 
Q 44.578125 48.1875 50.953125 41.515625 
Q 57.328125 34.859375 57.328125 23.390625 
Q 57.328125 12.15625 50.6875 5.359375 
Q 44.046875 -1.421875 33.015625 -1.421875 
Q 20.359375 -1.421875 13.671875 8.265625 
Q 6.984375 17.96875 6.984375 36.375 
Q 6.984375 53.65625 15.1875 63.9375 
Q 23.390625 74.21875 37.203125 74.21875 
Q 40.921875 74.21875 44.703125 73.484375 
Q 48.484375 72.75 52.59375 71.296875 
z
" id="DejaVuSans-54"/>
      </defs>
      <g style="fill:#262626;" transform="translate(263.879233 402.338281)scale(0.11 -0.11)">
       <use xlink:href="#DejaVuSans-54"/>
       <use x="63.623047" xlink:href="#DejaVuSans-48"/>
      </g>
     </g>
    </g>
    <g id="xtick_5">
     <g id="line2d_5">
      <path clip-path="url(#p9e561812e4)" d="M 337.170644 384.48 
L 337.170644 51.84 
" style="fill:none;stroke:#ffffff;stroke-linecap:round;"/>
     </g>
     <g id="text_5">
      <!-- 80 -->
      <defs>
       <path d="M 31.78125 34.625 
Q 24.75 34.625 20.71875 30.859375 
Q 16.703125 27.09375 16.703125 20.515625 
Q 16.703125 13.921875 20.71875 10.15625 
Q 24.75 6.390625 31.78125 6.390625 
Q 38.8125 6.390625 42.859375 10.171875 
Q 46.921875 13.96875 46.921875 20.515625 
Q 46.921875 27.09375 42.890625 30.859375 
Q 38.875 34.625 31.78125 34.625 
z
M 21.921875 38.8125 
Q 15.578125 40.375 12.03125 44.71875 
Q 8.5 49.078125 8.5 55.328125 
Q 8.5 64.0625 14.71875 69.140625 
Q 20.953125 74.21875 31.78125 74.21875 
Q 42.671875 74.21875 48.875 69.140625 
Q 55.078125 64.0625 55.078125 55.328125 
Q 55.078125 49.078125 51.53125 44.71875 
Q 48 40.375 41.703125 38.8125 
Q 48.828125 37.15625 52.796875 32.3125 
Q 56.78125 27.484375 56.78125 20.515625 
Q 56.78125 9.90625 50.3125 4.234375 
Q 43.84375 -1.421875 31.78125 -1.421875 
Q 19.734375 -1.421875 13.25 4.234375 
Q 6.78125 9.90625 6.78125 20.515625 
Q 6.78125 27.484375 10.78125 32.3125 
Q 14.796875 37.15625 21.921875 38.8125 
z
M 18.3125 54.390625 
Q 18.3125 48.734375 21.84375 45.5625 
Q 25.390625 42.390625 31.78125 42.390625 
Q 38.140625 42.390625 41.71875 45.5625 
Q 45.3125 48.734375 45.3125 54.390625 
Q 45.3125 60.0625 41.71875 63.234375 
Q 38.140625 66.40625 31.78125 66.40625 
Q 25.390625 66.40625 21.84375 63.234375 
Q 18.3125 60.0625 18.3125 54.390625 
z
" id="DejaVuSans-56"/>
      </defs>
      <g style="fill:#262626;" transform="translate(330.171894 402.338281)scale(0.11 -0.11)">
       <use xlink:href="#DejaVuSans-56"/>
       <use x="63.623047" xlink:href="#DejaVuSans-48"/>
      </g>
     </g>
    </g>
    <g id="xtick_6">
     <g id="line2d_6">
      <path clip-path="url(#p9e561812e4)" d="M 403.463305 384.48 
L 403.463305 51.84 
" style="fill:none;stroke:#ffffff;stroke-linecap:round;"/>
     </g>
     <g id="text_6">
      <!-- 100 -->
      <defs>
       <path d="M 12.40625 8.296875 
L 28.515625 8.296875 
L 28.515625 63.921875 
L 10.984375 60.40625 
L 10.984375 69.390625 
L 28.421875 72.90625 
L 38.28125 72.90625 
L 38.28125 8.296875 
L 54.390625 8.296875 
L 54.390625 0 
L 12.40625 0 
z
" id="DejaVuSans-49"/>
      </defs>
      <g style="fill:#262626;" transform="translate(392.96518 402.338281)scale(0.11 -0.11)">
       <use xlink:href="#DejaVuSans-49"/>
       <use x="63.623047" xlink:href="#DejaVuSans-48"/>
       <use x="127.246094" xlink:href="#DejaVuSans-48"/>
      </g>
     </g>
    </g>
    <g id="xtick_7">
     <g id="line2d_7">
      <path clip-path="url(#p9e561812e4)" d="M 469.755966 384.48 
L 469.755966 51.84 
" style="fill:none;stroke:#ffffff;stroke-linecap:round;"/>
     </g>
     <g id="text_7">
      <!-- 120 -->
      <g style="fill:#262626;" transform="translate(459.257841 402.338281)scale(0.11 -0.11)">
       <use xlink:href="#DejaVuSans-49"/>
       <use x="63.623047" xlink:href="#DejaVuSans-50"/>
       <use x="127.246094" xlink:href="#DejaVuSans-48"/>
      </g>
     </g>
    </g>
    <g id="text_8">
     <!-- $v_i^2$ -->
     <defs>
      <path d="M 7.171875 54.6875 
L 16.703125 54.6875 
L 24.703125 8.203125 
L 50.875 54.6875 
L 60.40625 54.6875 
L 29.296875 0 
L 17.1875 0 
z
" id="DejaVuSans-Oblique-118"/>
      <path d="M 18.3125 75.984375 
L 27.296875 75.984375 
L 25.09375 64.59375 
L 16.109375 64.59375 
z
M 14.203125 54.6875 
L 23.1875 54.6875 
L 12.5 0 
L 3.515625 0 
z
" id="DejaVuSans-Oblique-105"/>
     </defs>
     <g style="fill:#262626;" transform="translate(288.54 419.545937)scale(0.12 -0.12)">
      <use transform="translate(0 0.701562)" xlink:href="#DejaVuSans-Oblique-118"/>
      <use transform="translate(63.645833 39.046875)scale(0.7)" xlink:href="#DejaVuSans-50"/>
      <use transform="translate(59.179688 -26.642188)scale(0.7)" xlink:href="#DejaVuSans-Oblique-105"/>
     </g>
    </g>
   </g>
   <g id="matplotlib.axis_2">
    <g id="ytick_1">
     <g id="line2d_8">
      <path clip-path="url(#p9e561812e4)" d="M 72 369.36 
L 518.4 369.36 
" style="fill:none;stroke:#ffffff;stroke-linecap:round;"/>
     </g>
     <g id="text_9">
      <!-- $\mathdefault{10^{0}}$ -->
      <g style="fill:#262626;" transform="translate(43.14 373.539141)scale(0.11 -0.11)">
       <use transform="translate(0 0.765625)" xlink:href="#DejaVuSans-49"/>
       <use transform="translate(63.623047 0.765625)" xlink:href="#DejaVuSans-48"/>
       <use transform="translate(128.203125 39.046875)scale(0.7)" xlink:href="#DejaVuSans-48"/>
      </g>
     </g>
    </g>
    <g id="ytick_2">
     <g id="line2d_9">
      <path clip-path="url(#p9e561812e4)" d="M 72 322.161954 
L 518.4 322.161954 
" style="fill:none;stroke:#ffffff;stroke-linecap:round;"/>
     </g>
     <g id="text_10">
      <!-- $\mathdefault{10^{1}}$ -->
      <g style="fill:#262626;" transform="translate(43.14 326.341094)scale(0.11 -0.11)">
       <use transform="translate(0 0.684375)" xlink:href="#DejaVuSans-49"/>
       <use transform="translate(63.623047 0.684375)" xlink:href="#DejaVuSans-48"/>
       <use transform="translate(128.203125 38.965625)scale(0.7)" xlink:href="#DejaVuSans-49"/>
      </g>
     </g>
    </g>
    <g id="ytick_3">
     <g id="line2d_10">
      <path clip-path="url(#p9e561812e4)" d="M 72 274.963907 
L 518.4 274.963907 
" style="fill:none;stroke:#ffffff;stroke-linecap:round;"/>
     </g>
     <g id="text_11">
      <!-- $\mathdefault{10^{2}}$ -->
      <g style="fill:#262626;" transform="translate(43.14 279.143048)scale(0.11 -0.11)">
       <use transform="translate(0 0.765625)" xlink:href="#DejaVuSans-49"/>
       <use transform="translate(63.623047 0.765625)" xlink:href="#DejaVuSans-48"/>
       <use transform="translate(128.203125 39.046875)scale(0.7)" xlink:href="#DejaVuSans-50"/>
      </g>
     </g>
    </g>
    <g id="ytick_4">
     <g id="line2d_11">
      <path clip-path="url(#p9e561812e4)" d="M 72 227.765861 
L 518.4 227.765861 
" style="fill:none;stroke:#ffffff;stroke-linecap:round;"/>
     </g>
     <g id="text_12">
      <!-- $\mathdefault{10^{3}}$ -->
      <defs>
       <path d="M 40.578125 39.3125 
Q 47.65625 37.796875 51.625 33 
Q 55.609375 28.21875 55.609375 21.1875 
Q 55.609375 10.40625 48.1875 4.484375 
Q 40.765625 -1.421875 27.09375 -1.421875 
Q 22.515625 -1.421875 17.65625 -0.515625 
Q 12.796875 0.390625 7.625 2.203125 
L 7.625 11.71875 
Q 11.71875 9.328125 16.59375 8.109375 
Q 21.484375 6.890625 26.8125 6.890625 
Q 36.078125 6.890625 40.9375 10.546875 
Q 45.796875 14.203125 45.796875 21.1875 
Q 45.796875 27.640625 41.28125 31.265625 
Q 36.765625 34.90625 28.71875 34.90625 
L 20.21875 34.90625 
L 20.21875 43.015625 
L 29.109375 43.015625 
Q 36.375 43.015625 40.234375 45.921875 
Q 44.09375 48.828125 44.09375 54.296875 
Q 44.09375 59.90625 40.109375 62.90625 
Q 36.140625 65.921875 28.71875 65.921875 
Q 24.65625 65.921875 20.015625 65.03125 
Q 15.375 64.15625 9.8125 62.3125 
L 9.8125 71.09375 
Q 15.4375 72.65625 20.34375 73.4375 
Q 25.25 74.21875 29.59375 74.21875 
Q 40.828125 74.21875 47.359375 69.109375 
Q 53.90625 64.015625 53.90625 55.328125 
Q 53.90625 49.265625 50.4375 45.09375 
Q 46.96875 40.921875 40.578125 39.3125 
z
" id="DejaVuSans-51"/>
      </defs>
      <g style="fill:#262626;" transform="translate(43.14 231.945002)scale(0.11 -0.11)">
       <use transform="translate(0 0.765625)" xlink:href="#DejaVuSans-49"/>
       <use transform="translate(63.623047 0.765625)" xlink:href="#DejaVuSans-48"/>
       <use transform="translate(128.203125 39.046875)scale(0.7)" xlink:href="#DejaVuSans-51"/>
      </g>
     </g>
    </g>
    <g id="ytick_5">
     <g id="line2d_12">
      <path clip-path="url(#p9e561812e4)" d="M 72 180.567815 
L 518.4 180.567815 
" style="fill:none;stroke:#ffffff;stroke-linecap:round;"/>
     </g>
     <g id="text_13">
      <!-- $\mathdefault{10^{4}}$ -->
      <g style="fill:#262626;" transform="translate(43.14 184.746955)scale(0.11 -0.11)">
       <use transform="translate(0 0.684375)" xlink:href="#DejaVuSans-49"/>
       <use transform="translate(63.623047 0.684375)" xlink:href="#DejaVuSans-48"/>
       <use transform="translate(128.203125 38.965625)scale(0.7)" xlink:href="#DejaVuSans-52"/>
      </g>
     </g>
    </g>
    <g id="ytick_6">
     <g id="line2d_13">
      <path clip-path="url(#p9e561812e4)" d="M 72 133.369768 
L 518.4 133.369768 
" style="fill:none;stroke:#ffffff;stroke-linecap:round;"/>
     </g>
     <g id="text_14">
      <!-- $\mathdefault{10^{5}}$ -->
      <defs>
       <path d="M 10.796875 72.90625 
L 49.515625 72.90625 
L 49.515625 64.59375 
L 19.828125 64.59375 
L 19.828125 46.734375 
Q 21.96875 47.46875 24.109375 47.828125 
Q 26.265625 48.1875 28.421875 48.1875 
Q 40.625 48.1875 47.75 41.5 
Q 54.890625 34.8125 54.890625 23.390625 
Q 54.890625 11.625 47.5625 5.09375 
Q 40.234375 -1.421875 26.90625 -1.421875 
Q 22.3125 -1.421875 17.546875 -0.640625 
Q 12.796875 0.140625 7.71875 1.703125 
L 7.71875 11.625 
Q 12.109375 9.234375 16.796875 8.0625 
Q 21.484375 6.890625 26.703125 6.890625 
Q 35.15625 6.890625 40.078125 11.328125 
Q 45.015625 15.765625 45.015625 23.390625 
Q 45.015625 31 40.078125 35.4375 
Q 35.15625 39.890625 26.703125 39.890625 
Q 22.75 39.890625 18.8125 39.015625 
Q 14.890625 38.140625 10.796875 36.28125 
z
" id="DejaVuSans-53"/>
      </defs>
      <g style="fill:#262626;" transform="translate(43.14 137.548909)scale(0.11 -0.11)">
       <use transform="translate(0 0.684375)" xlink:href="#DejaVuSans-49"/>
       <use transform="translate(63.623047 0.684375)" xlink:href="#DejaVuSans-48"/>
       <use transform="translate(128.203125 38.965625)scale(0.7)" xlink:href="#DejaVuSans-53"/>
      </g>
     </g>
    </g>
    <g id="ytick_7">
     <g id="line2d_14">
      <path clip-path="url(#p9e561812e4)" d="M 72 86.171722 
L 518.4 86.171722 
" style="fill:none;stroke:#ffffff;stroke-linecap:round;"/>
     </g>
     <g id="text_15">
      <!-- $\mathdefault{10^{6}}$ -->
      <g style="fill:#262626;" transform="translate(43.14 90.350863)scale(0.11 -0.11)">
       <use transform="translate(0 0.765625)" xlink:href="#DejaVuSans-49"/>
       <use transform="translate(63.623047 0.765625)" xlink:href="#DejaVuSans-48"/>
       <use transform="translate(128.203125 39.046875)scale(0.7)" xlink:href="#DejaVuSans-54"/>
      </g>
     </g>
    </g>
    <g id="ytick_8"/>
    <g id="ytick_9"/>
    <g id="ytick_10"/>
    <g id="ytick_11"/>
    <g id="ytick_12"/>
    <g id="ytick_13"/>
    <g id="ytick_14"/>
    <g id="ytick_15"/>
    <g id="ytick_16"/>
    <g id="ytick_17"/>
    <g id="ytick_18"/>
    <g id="ytick_19"/>
    <g id="ytick_20"/>
    <g id="ytick_21"/>
    <g id="ytick_22"/>
    <g id="ytick_23"/>
    <g id="ytick_24"/>
    <g id="ytick_25"/>
    <g id="ytick_26"/>
    <g id="ytick_27"/>
    <g id="ytick_28"/>
    <g id="ytick_29"/>
    <g id="ytick_30"/>
    <g id="ytick_31"/>
    <g id="ytick_32"/>
    <g id="ytick_33"/>
    <g id="ytick_34"/>
    <g id="ytick_35"/>
    <g id="ytick_36"/>
    <g id="ytick_37"/>
    <g id="ytick_38"/>
    <g id="ytick_39"/>
    <g id="ytick_40"/>
    <g id="ytick_41"/>
    <g id="ytick_42"/>
    <g id="ytick_43"/>
    <g id="ytick_44"/>
    <g id="ytick_45"/>
    <g id="ytick_46"/>
    <g id="ytick_47"/>
    <g id="ytick_48"/>
    <g id="ytick_49"/>
    <g id="ytick_50"/>
    <g id="ytick_51"/>
    <g id="ytick_52"/>
    <g id="ytick_53"/>
    <g id="ytick_54"/>
    <g id="ytick_55"/>
    <g id="ytick_56"/>
    <g id="ytick_57"/>
    <g id="ytick_58"/>
    <g id="ytick_59"/>
    <g id="ytick_60"/>
    <g id="ytick_61"/>
    <g id="ytick_62"/>
    <g id="ytick_63"/>
    <g id="ytick_64"/>
    <g id="text_16">
     <!-- $\ln(n_v)$ -->
     <defs>
      <path d="M 9.421875 75.984375 
L 18.40625 75.984375 
L 18.40625 0 
L 9.421875 0 
z
" id="DejaVuSans-108"/>
      <path d="M 54.890625 33.015625 
L 54.890625 0 
L 45.90625 0 
L 45.90625 32.71875 
Q 45.90625 40.484375 42.875 44.328125 
Q 39.84375 48.1875 33.796875 48.1875 
Q 26.515625 48.1875 22.3125 43.546875 
Q 18.109375 38.921875 18.109375 30.90625 
L 18.109375 0 
L 9.078125 0 
L 9.078125 54.6875 
L 18.109375 54.6875 
L 18.109375 46.1875 
Q 21.34375 51.125 25.703125 53.5625 
Q 30.078125 56 35.796875 56 
Q 45.21875 56 50.046875 50.171875 
Q 54.890625 44.34375 54.890625 33.015625 
z
" id="DejaVuSans-110"/>
      <path d="M 31 75.875 
Q 24.46875 64.65625 21.28125 53.65625 
Q 18.109375 42.671875 18.109375 31.390625 
Q 18.109375 20.125 21.3125 9.0625 
Q 24.515625 -2 31 -13.1875 
L 23.1875 -13.1875 
Q 15.875 -1.703125 12.234375 9.375 
Q 8.59375 20.453125 8.59375 31.390625 
Q 8.59375 42.28125 12.203125 53.3125 
Q 15.828125 64.359375 23.1875 75.875 
z
" id="DejaVuSans-40"/>
      <path d="M 55.71875 33.015625 
L 49.3125 0 
L 40.28125 0 
L 46.6875 32.671875 
Q 47.125 34.96875 47.359375 36.71875 
Q 47.609375 38.484375 47.609375 39.5 
Q 47.609375 43.609375 45.015625 45.890625 
Q 42.4375 48.1875 37.796875 48.1875 
Q 30.5625 48.1875 25.34375 43.375 
Q 20.125 38.578125 18.5 30.328125 
L 12.5 0 
L 3.515625 0 
L 14.109375 54.6875 
L 23.09375 54.6875 
L 21.296875 46.09375 
Q 25.046875 50.828125 30.3125 53.40625 
Q 35.59375 56 41.40625 56 
Q 48.640625 56 52.609375 52.09375 
Q 56.59375 48.1875 56.59375 41.109375 
Q 56.59375 39.359375 56.375 37.359375 
Q 56.15625 35.359375 55.71875 33.015625 
z
" id="DejaVuSans-Oblique-110"/>
      <path d="M 8.015625 75.875 
L 15.828125 75.875 
Q 23.140625 64.359375 26.78125 53.3125 
Q 30.421875 42.28125 30.421875 31.390625 
Q 30.421875 20.453125 26.78125 9.375 
Q 23.140625 -1.703125 15.828125 -13.1875 
L 8.015625 -13.1875 
Q 14.5 -2 17.703125 9.0625 
Q 20.90625 20.125 20.90625 31.390625 
Q 20.90625 42.671875 17.703125 53.65625 
Q 14.5 64.65625 8.015625 75.875 
z
" id="DejaVuSans-41"/>
     </defs>
     <g style="fill:#262626;" transform="translate(36.644375 234.78)rotate(-90)scale(0.12 -0.12)">
      <use transform="translate(0 0.015625)" xlink:href="#DejaVuSans-108"/>
      <use transform="translate(27.783203 0.015625)" xlink:href="#DejaVuSans-110"/>
      <use transform="translate(91.162109 0.015625)" xlink:href="#DejaVuSans-40"/>
      <use transform="translate(130.175781 0.015625)" xlink:href="#DejaVuSans-Oblique-110"/>
      <use transform="translate(193.554688 -16.390625)scale(0.7)" xlink:href="#DejaVuSans-Oblique-118"/>
      <use transform="translate(237.714844 0.015625)" xlink:href="#DejaVuSans-41"/>
     </g>
    </g>
   </g>
   <g id="patch_3">
    <path clip-path="url(#p9e561812e4)" d="M 72 47567.406302 
L 78.994939 47567.406302 
L 78.994939 68.750265 
L 72 68.750265 
z
" style="fill:#c6dbef;opacity:0.4;stroke:#ffffff;stroke-linejoin:miter;"/>
   </g>
   <g id="patch_4">
    <path clip-path="url(#p9e561812e4)" d="M 78.994939 47567.406302 
L 85.989878 47567.406302 
L 85.989878 91.41978 
L 78.994939 91.41978 
z
" style="fill:#c6dbef;opacity:0.4;stroke:#ffffff;stroke-linejoin:miter;"/>
   </g>
   <g id="patch_5">
    <path clip-path="url(#p9e561812e4)" d="M 85.989878 47567.406302 
L 92.984817 47567.406302 
L 92.984817 100.526588 
L 85.989878 100.526588 
z
" style="fill:#c6dbef;opacity:0.4;stroke:#ffffff;stroke-linejoin:miter;"/>
   </g>
   <g id="patch_6">
    <path clip-path="url(#p9e561812e4)" d="M 92.984817 47567.406302 
L 99.979756 47567.406302 
L 99.979756 108.243927 
L 92.984817 108.243927 
z
" style="fill:#c6dbef;opacity:0.4;stroke:#ffffff;stroke-linejoin:miter;"/>
   </g>
   <g id="patch_7">
    <path clip-path="url(#p9e561812e4)" d="M 99.979756 47567.406302 
L 106.974695 47567.406302 
L 106.974695 114.999882 
L 99.979756 114.999882 
z
" style="fill:#c6dbef;opacity:0.4;stroke:#ffffff;stroke-linejoin:miter;"/>
   </g>
   <g id="patch_8">
    <path clip-path="url(#p9e561812e4)" d="M 106.974695 47567.406302 
L 113.969634 47567.406302 
L 113.969634 121.336784 
L 106.974695 121.336784 
z
" style="fill:#c6dbef;opacity:0.4;stroke:#ffffff;stroke-linejoin:miter;"/>
   </g>
   <g id="patch_9">
    <path clip-path="url(#p9e561812e4)" d="M 113.969634 47567.406302 
L 120.964573 47567.406302 
L 120.964573 126.716124 
L 113.969634 126.716124 
z
" style="fill:#c6dbef;opacity:0.4;stroke:#ffffff;stroke-linejoin:miter;"/>
   </g>
   <g id="patch_10">
    <path clip-path="url(#p9e561812e4)" d="M 120.964573 47567.406302 
L 127.959512 47567.406302 
L 127.959512 131.937942 
L 120.964573 131.937942 
z
" style="fill:#c6dbef;opacity:0.4;stroke:#ffffff;stroke-linejoin:miter;"/>
   </g>
   <g id="patch_11">
    <path clip-path="url(#p9e561812e4)" d="M 127.959512 47567.406302 
L 134.954451 47567.406302 
L 134.954451 138.348695 
L 127.959512 138.348695 
z
" style="fill:#c6dbef;opacity:0.4;stroke:#ffffff;stroke-linejoin:miter;"/>
   </g>
   <g id="patch_12">
    <path clip-path="url(#p9e561812e4)" d="M 134.954451 47567.406302 
L 141.94939 47567.406302 
L 141.94939 143.069202 
L 134.954451 143.069202 
z
" style="fill:#c6dbef;opacity:0.4;stroke:#ffffff;stroke-linejoin:miter;"/>
   </g>
   <g id="patch_13">
    <path clip-path="url(#p9e561812e4)" d="M 141.94939 47567.406302 
L 148.944329 47567.406302 
L 148.944329 148.218211 
L 141.94939 148.218211 
z
" style="fill:#c6dbef;opacity:0.4;stroke:#ffffff;stroke-linejoin:miter;"/>
   </g>
   <g id="patch_14">
    <path clip-path="url(#p9e561812e4)" d="M 148.944329 47567.406302 
L 155.939268 47567.406302 
L 155.939268 152.77241 
L 148.944329 152.77241 
z
" style="fill:#c6dbef;opacity:0.4;stroke:#ffffff;stroke-linejoin:miter;"/>
   </g>
   <g id="patch_15">
    <path clip-path="url(#p9e561812e4)" d="M 155.939268 47567.406302 
L 162.934207 47567.406302 
L 162.934207 158.29332 
L 155.939268 158.29332 
z
" style="fill:#c6dbef;opacity:0.4;stroke:#ffffff;stroke-linejoin:miter;"/>
   </g>
   <g id="patch_16">
    <path clip-path="url(#p9e561812e4)" d="M 162.934207 47567.406302 
L 169.929146 47567.406302 
L 169.929146 162.744226 
L 162.934207 162.744226 
z
" style="fill:#c6dbef;opacity:0.4;stroke:#ffffff;stroke-linejoin:miter;"/>
   </g>
   <g id="patch_17">
    <path clip-path="url(#p9e561812e4)" d="M 169.929146 47567.406302 
L 176.924085 47567.406302 
L 176.924085 165.962921 
L 169.929146 165.962921 
z
" style="fill:#c6dbef;opacity:0.4;stroke:#ffffff;stroke-linejoin:miter;"/>
   </g>
   <g id="patch_18">
    <path clip-path="url(#p9e561812e4)" d="M 176.924085 47567.406302 
L 183.919024 47567.406302 
L 183.919024 171.842703 
L 176.924085 171.842703 
z
" style="fill:#c6dbef;opacity:0.4;stroke:#ffffff;stroke-linejoin:miter;"/>
   </g>
   <g id="patch_19">
    <path clip-path="url(#p9e561812e4)" d="M 183.919024 47567.406302 
L 190.913963 47567.406302 
L 190.913963 175.892433 
L 183.919024 175.892433 
z
" style="fill:#c6dbef;opacity:0.4;stroke:#ffffff;stroke-linejoin:miter;"/>
   </g>
   <g id="patch_20">
    <path clip-path="url(#p9e561812e4)" d="M 190.913963 47567.406302 
L 197.908901 47567.406302 
L 197.908901 182.25024 
L 190.913963 182.25024 
z
" style="fill:#c6dbef;opacity:0.4;stroke:#ffffff;stroke-linejoin:miter;"/>
   </g>
   <g id="patch_21">
    <path clip-path="url(#p9e561812e4)" d="M 197.908901 47567.406302 
L 204.90384 47567.406302 
L 204.90384 184.660645 
L 197.908901 184.660645 
z
" style="fill:#c6dbef;opacity:0.4;stroke:#ffffff;stroke-linejoin:miter;"/>
   </g>
   <g id="patch_22">
    <path clip-path="url(#p9e561812e4)" d="M 204.90384 47567.406302 
L 211.898779 47567.406302 
L 211.898779 190.218284 
L 204.90384 190.218284 
z
" style="fill:#c6dbef;opacity:0.4;stroke:#ffffff;stroke-linejoin:miter;"/>
   </g>
   <g id="patch_23">
    <path clip-path="url(#p9e561812e4)" d="M 211.898779 47567.406302 
L 218.893718 47567.406302 
L 218.893718 195.189955 
L 211.898779 195.189955 
z
" style="fill:#c6dbef;opacity:0.4;stroke:#ffffff;stroke-linejoin:miter;"/>
   </g>
   <g id="patch_24">
    <path clip-path="url(#p9e561812e4)" d="M 218.893718 47567.406302 
L 225.888657 47567.406302 
L 225.888657 199.979438 
L 218.893718 199.979438 
z
" style="fill:#c6dbef;opacity:0.4;stroke:#ffffff;stroke-linejoin:miter;"/>
   </g>
   <g id="patch_25">
    <path clip-path="url(#p9e561812e4)" d="M 225.888657 47567.406302 
L 232.883596 47567.406302 
L 232.883596 204.760532 
L 225.888657 204.760532 
z
" style="fill:#c6dbef;opacity:0.4;stroke:#ffffff;stroke-linejoin:miter;"/>
   </g>
   <g id="patch_26">
    <path clip-path="url(#p9e561812e4)" d="M 232.883596 47567.406302 
L 239.878535 47567.406302 
L 239.878535 209.966343 
L 232.883596 209.966343 
z
" style="fill:#c6dbef;opacity:0.4;stroke:#ffffff;stroke-linejoin:miter;"/>
   </g>
   <g id="patch_27">
    <path clip-path="url(#p9e561812e4)" d="M 239.878535 47567.406302 
L 246.873474 47567.406302 
L 246.873474 208.266835 
L 239.878535 208.266835 
z
" style="fill:#c6dbef;opacity:0.4;stroke:#ffffff;stroke-linejoin:miter;"/>
   </g>
   <g id="patch_28">
    <path clip-path="url(#p9e561812e4)" d="M 246.873474 47567.406302 
L 253.868413 47567.406302 
L 253.868413 218.10619 
L 246.873474 218.10619 
z
" style="fill:#c6dbef;opacity:0.4;stroke:#ffffff;stroke-linejoin:miter;"/>
   </g>
   <g id="patch_29">
    <path clip-path="url(#p9e561812e4)" d="M 253.868413 47567.406302 
L 260.863352 47567.406302 
L 260.863352 222.514488 
L 253.868413 222.514488 
z
" style="fill:#c6dbef;opacity:0.4;stroke:#ffffff;stroke-linejoin:miter;"/>
   </g>
   <g id="patch_30">
    <path clip-path="url(#p9e561812e4)" d="M 260.863352 47567.406302 
L 267.858291 47567.406302 
L 267.858291 225.36979 
L 260.863352 225.36979 
z
" style="fill:#c6dbef;opacity:0.4;stroke:#ffffff;stroke-linejoin:miter;"/>
   </g>
   <g id="patch_31">
    <path clip-path="url(#p9e561812e4)" d="M 267.858291 47567.406302 
L 274.85323 47567.406302 
L 274.85323 231.169623 
L 267.858291 231.169623 
z
" style="fill:#c6dbef;opacity:0.4;stroke:#ffffff;stroke-linejoin:miter;"/>
   </g>
   <g id="patch_32">
    <path clip-path="url(#p9e561812e4)" d="M 274.85323 47567.406302 
L 281.848169 47567.406302 
L 281.848169 243.28586 
L 274.85323 243.28586 
z
" style="fill:#c6dbef;opacity:0.4;stroke:#ffffff;stroke-linejoin:miter;"/>
   </g>
   <g id="patch_33">
    <path clip-path="url(#p9e561812e4)" d="M 281.848169 47567.406302 
L 288.843108 47567.406302 
L 288.843108 240.663803 
L 281.848169 240.663803 
z
" style="fill:#c6dbef;opacity:0.4;stroke:#ffffff;stroke-linejoin:miter;"/>
   </g>
   <g id="patch_34">
    <path clip-path="url(#p9e561812e4)" d="M 288.843108 47567.406302 
L 295.838047 47567.406302 
L 295.838047 246.293217 
L 288.843108 246.293217 
z
" style="fill:#c6dbef;opacity:0.4;stroke:#ffffff;stroke-linejoin:miter;"/>
   </g>
   <g id="patch_35">
    <path clip-path="url(#p9e561812e4)" d="M 295.838047 47567.406302 
L 302.832986 47567.406302 
L 302.832986 240.207431 
L 295.838047 240.207431 
z
" style="fill:#c6dbef;opacity:0.4;stroke:#ffffff;stroke-linejoin:miter;"/>
   </g>
   <g id="patch_36">
    <path clip-path="url(#p9e561812e4)" d="M 302.832986 47567.406302 
L 309.827925 47567.406302 
L 309.827925 241.248938 
L 302.832986 241.248938 
z
" style="fill:#c6dbef;opacity:0.4;stroke:#ffffff;stroke-linejoin:miter;"/>
   </g>
   <g id="patch_37">
    <path clip-path="url(#p9e561812e4)" d="M 309.827925 47567.406302 
L 316.822864 47567.406302 
L 316.822864 250.61567 
L 309.827925 250.61567 
z
" style="fill:#c6dbef;opacity:0.4;stroke:#ffffff;stroke-linejoin:miter;"/>
   </g>
   <g id="patch_38">
    <path clip-path="url(#p9e561812e4)" d="M 316.822864 47567.406302 
L 323.817803 47567.406302 
L 323.817803 250.804013 
L 316.822864 250.804013 
z
" style="fill:#c6dbef;opacity:0.4;stroke:#ffffff;stroke-linejoin:miter;"/>
   </g>
   <g id="patch_39">
    <path clip-path="url(#p9e561812e4)" d="M 323.817803 47567.406302 
L 330.812742 47567.406302 
L 330.812742 266.381245 
L 323.817803 266.381245 
z
" style="fill:#c6dbef;opacity:0.4;stroke:#ffffff;stroke-linejoin:miter;"/>
   </g>
   <g id="patch_40">
    <path clip-path="url(#p9e561812e4)" d="M 330.812742 47567.406302 
L 337.807681 47567.406302 
L 337.807681 264.575236 
L 330.812742 264.575236 
z
" style="fill:#c6dbef;opacity:0.4;stroke:#ffffff;stroke-linejoin:miter;"/>
   </g>
   <g id="patch_41">
    <path clip-path="url(#p9e561812e4)" d="M 337.807681 47567.406302 
L 344.80262 47567.406302 
L 344.80262 279.283236 
L 337.807681 279.283236 
z
" style="fill:#c6dbef;opacity:0.4;stroke:#ffffff;stroke-linejoin:miter;"/>
   </g>
   <g id="patch_42">
    <path clip-path="url(#p9e561812e4)" d="M 344.80262 47567.406302 
L 351.797559 47567.406302 
L 351.797559 299.642763 
L 344.80262 299.642763 
z
" style="fill:#c6dbef;opacity:0.4;stroke:#ffffff;stroke-linejoin:miter;"/>
   </g>
   <g id="patch_43">
    <path clip-path="url(#p9e561812e4)" d="M 351.797559 47567.406302 
L 358.792498 47567.406302 
L 358.792498 303.379963 
L 351.797559 303.379963 
z
" style="fill:#c6dbef;opacity:0.4;stroke:#ffffff;stroke-linejoin:miter;"/>
   </g>
   <g id="patch_44">
    <path clip-path="url(#p9e561812e4)" d="M 358.792498 47567.406302 
L 365.787437 47567.406302 
L 365.787437 311.285215 
L 358.792498 311.285215 
z
" style="fill:#c6dbef;opacity:0.4;stroke:#ffffff;stroke-linejoin:miter;"/>
   </g>
   <g id="patch_45">
    <path clip-path="url(#p9e561812e4)" d="M 365.787437 47567.406302 
L 372.782376 47567.406302 
L 372.782376 285.09592 
L 365.787437 285.09592 
z
" style="fill:#c6dbef;opacity:0.4;stroke:#ffffff;stroke-linejoin:miter;"/>
   </g>
   <g id="patch_46">
    <path clip-path="url(#p9e561812e4)" d="M 372.782376 47567.406302 
L 379.777315 47567.406302 
L 379.777315 312.527889 
L 372.782376 312.527889 
z
" style="fill:#c6dbef;opacity:0.4;stroke:#ffffff;stroke-linejoin:miter;"/>
   </g>
   <g id="patch_47">
    <path clip-path="url(#p9e561812e4)" d="M 379.777315 47567.406302 
L 386.772254 47567.406302 
L 386.772254 340.943945 
L 379.777315 340.943945 
z
" style="fill:#c6dbef;opacity:0.4;stroke:#ffffff;stroke-linejoin:miter;"/>
   </g>
   <g id="patch_48">
    <path clip-path="url(#p9e561812e4)" d="M 386.772254 47567.406302 
L 393.767193 47567.406302 
L 393.767193 292.26348 
L 386.772254 292.26348 
z
" style="fill:#c6dbef;opacity:0.4;stroke:#ffffff;stroke-linejoin:miter;"/>
   </g>
   <g id="patch_49">
    <path clip-path="url(#p9e561812e4)" d="M 393.767193 47567.406302 
L 400.762132 47567.406302 
L 400.762132 309.005328 
L 393.767193 309.005328 
z
" style="fill:#c6dbef;opacity:0.4;stroke:#ffffff;stroke-linejoin:miter;"/>
   </g>
   <g id="patch_50">
    <path clip-path="url(#p9e561812e4)" d="M 400.762132 47567.406302 
L 407.757071 47567.406302 
L 407.757071 47567.406302 
L 400.762132 47567.406302 
z
" style="fill:#c6dbef;opacity:0.4;stroke:#ffffff;stroke-linejoin:miter;"/>
   </g>
   <g id="patch_51">
    <path clip-path="url(#p9e561812e4)" d="M 407.757071 47567.406302 
L 414.75201 47567.406302 
L 414.75201 355.151972 
L 407.757071 355.151972 
z
" style="fill:#c6dbef;opacity:0.4;stroke:#ffffff;stroke-linejoin:miter;"/>
   </g>
   <g id="patch_52">
    <path clip-path="url(#p9e561812e4)" d="M 414.75201 47567.406302 
L 421.746949 47567.406302 
L 421.746949 336.369981 
L 414.75201 336.369981 
z
" style="fill:#c6dbef;opacity:0.4;stroke:#ffffff;stroke-linejoin:miter;"/>
   </g>
   <g id="patch_53">
    <path clip-path="url(#p9e561812e4)" d="M 72 47567.406302 
L 79.901108 47567.406302 
L 79.901108 67.719699 
L 72 67.719699 
z
" style="fill:#6aaed6;opacity:0.4;stroke:#ffffff;stroke-linejoin:miter;"/>
   </g>
   <g id="patch_54">
    <path clip-path="url(#p9e561812e4)" d="M 79.901108 47567.406302 
L 87.802216 47567.406302 
L 87.802216 91.114825 
L 79.901108 91.114825 
z
" style="fill:#6aaed6;opacity:0.4;stroke:#ffffff;stroke-linejoin:miter;"/>
   </g>
   <g id="patch_55">
    <path clip-path="url(#p9e561812e4)" d="M 87.802216 47567.406302 
L 95.703323 47567.406302 
L 95.703323 100.663925 
L 87.802216 100.663925 
z
" style="fill:#6aaed6;opacity:0.4;stroke:#ffffff;stroke-linejoin:miter;"/>
   </g>
   <g id="patch_56">
    <path clip-path="url(#p9e561812e4)" d="M 95.703323 47567.406302 
L 103.604431 47567.406302 
L 103.604431 108.672801 
L 95.703323 108.672801 
z
" style="fill:#6aaed6;opacity:0.4;stroke:#ffffff;stroke-linejoin:miter;"/>
   </g>
   <g id="patch_57">
    <path clip-path="url(#p9e561812e4)" d="M 103.604431 47567.406302 
L 111.505539 47567.406302 
L 111.505539 115.70609 
L 103.604431 115.70609 
z
" style="fill:#6aaed6;opacity:0.4;stroke:#ffffff;stroke-linejoin:miter;"/>
   </g>
   <g id="patch_58">
    <path clip-path="url(#p9e561812e4)" d="M 111.505539 47567.406302 
L 119.406647 47567.406302 
L 119.406647 122.172645 
L 111.505539 122.172645 
z
" style="fill:#6aaed6;opacity:0.4;stroke:#ffffff;stroke-linejoin:miter;"/>
   </g>
   <g id="patch_59">
    <path clip-path="url(#p9e561812e4)" d="M 119.406647 47567.406302 
L 127.307754 47567.406302 
L 127.307754 128.780888 
L 119.406647 128.780888 
z
" style="fill:#6aaed6;opacity:0.4;stroke:#ffffff;stroke-linejoin:miter;"/>
   </g>
   <g id="patch_60">
    <path clip-path="url(#p9e561812e4)" d="M 127.307754 47567.406302 
L 135.208862 47567.406302 
L 135.208862 135.359325 
L 127.307754 135.359325 
z
" style="fill:#6aaed6;opacity:0.4;stroke:#ffffff;stroke-linejoin:miter;"/>
   </g>
   <g id="patch_61">
    <path clip-path="url(#p9e561812e4)" d="M 135.208862 47567.406302 
L 143.10997 47567.406302 
L 143.10997 140.619145 
L 135.208862 140.619145 
z
" style="fill:#6aaed6;opacity:0.4;stroke:#ffffff;stroke-linejoin:miter;"/>
   </g>
   <g id="patch_62">
    <path clip-path="url(#p9e561812e4)" d="M 143.10997 47567.406302 
L 151.011078 47567.406302 
L 151.011078 146.059181 
L 143.10997 146.059181 
z
" style="fill:#6aaed6;opacity:0.4;stroke:#ffffff;stroke-linejoin:miter;"/>
   </g>
   <g id="patch_63">
    <path clip-path="url(#p9e561812e4)" d="M 151.011078 47567.406302 
L 158.912185 47567.406302 
L 158.912185 151.810256 
L 151.011078 151.810256 
z
" style="fill:#6aaed6;opacity:0.4;stroke:#ffffff;stroke-linejoin:miter;"/>
   </g>
   <g id="patch_64">
    <path clip-path="url(#p9e561812e4)" d="M 158.912185 47567.406302 
L 166.813293 47567.406302 
L 166.813293 156.869712 
L 158.912185 156.869712 
z
" style="fill:#6aaed6;opacity:0.4;stroke:#ffffff;stroke-linejoin:miter;"/>
   </g>
   <g id="patch_65">
    <path clip-path="url(#p9e561812e4)" d="M 166.813293 47567.406302 
L 174.714401 47567.406302 
L 174.714401 162.728767 
L 166.813293 162.728767 
z
" style="fill:#6aaed6;opacity:0.4;stroke:#ffffff;stroke-linejoin:miter;"/>
   </g>
   <g id="patch_66">
    <path clip-path="url(#p9e561812e4)" d="M 174.714401 47567.406302 
L 182.615509 47567.406302 
L 182.615509 168.912658 
L 174.714401 168.912658 
z
" style="fill:#6aaed6;opacity:0.4;stroke:#ffffff;stroke-linejoin:miter;"/>
   </g>
   <g id="patch_67">
    <path clip-path="url(#p9e561812e4)" d="M 182.615509 47567.406302 
L 190.516617 47567.406302 
L 190.516617 175.755824 
L 182.615509 175.755824 
z
" style="fill:#6aaed6;opacity:0.4;stroke:#ffffff;stroke-linejoin:miter;"/>
   </g>
   <g id="patch_68">
    <path clip-path="url(#p9e561812e4)" d="M 190.516617 47567.406302 
L 198.417724 47567.406302 
L 198.417724 179.140768 
L 190.516617 179.140768 
z
" style="fill:#6aaed6;opacity:0.4;stroke:#ffffff;stroke-linejoin:miter;"/>
   </g>
   <g id="patch_69">
    <path clip-path="url(#p9e561812e4)" d="M 198.417724 47567.406302 
L 206.318832 47567.406302 
L 206.318832 184.866908 
L 198.417724 184.866908 
z
" style="fill:#6aaed6;opacity:0.4;stroke:#ffffff;stroke-linejoin:miter;"/>
   </g>
   <g id="patch_70">
    <path clip-path="url(#p9e561812e4)" d="M 206.318832 47567.406302 
L 214.21994 47567.406302 
L 214.21994 188.721749 
L 206.318832 188.721749 
z
" style="fill:#6aaed6;opacity:0.4;stroke:#ffffff;stroke-linejoin:miter;"/>
   </g>
   <g id="patch_71">
    <path clip-path="url(#p9e561812e4)" d="M 214.21994 47567.406302 
L 222.121048 47567.406302 
L 222.121048 192.725518 
L 214.21994 192.725518 
z
" style="fill:#6aaed6;opacity:0.4;stroke:#ffffff;stroke-linejoin:miter;"/>
   </g>
   <g id="patch_72">
    <path clip-path="url(#p9e561812e4)" d="M 222.121048 47567.406302 
L 230.022155 47567.406302 
L 230.022155 198.78874 
L 222.121048 198.78874 
z
" style="fill:#6aaed6;opacity:0.4;stroke:#ffffff;stroke-linejoin:miter;"/>
   </g>
   <g id="patch_73">
    <path clip-path="url(#p9e561812e4)" d="M 230.022155 47567.406302 
L 237.923263 47567.406302 
L 237.923263 206.019477 
L 230.022155 206.019477 
z
" style="fill:#6aaed6;opacity:0.4;stroke:#ffffff;stroke-linejoin:miter;"/>
   </g>
   <g id="patch_74">
    <path clip-path="url(#p9e561812e4)" d="M 237.923263 47567.406302 
L 245.824371 47567.406302 
L 245.824371 208.853102 
L 237.923263 208.853102 
z
" style="fill:#6aaed6;opacity:0.4;stroke:#ffffff;stroke-linejoin:miter;"/>
   </g>
   <g id="patch_75">
    <path clip-path="url(#p9e561812e4)" d="M 245.824371 47567.406302 
L 253.725479 47567.406302 
L 253.725479 213.888451 
L 245.824371 213.888451 
z
" style="fill:#6aaed6;opacity:0.4;stroke:#ffffff;stroke-linejoin:miter;"/>
   </g>
   <g id="patch_76">
    <path clip-path="url(#p9e561812e4)" d="M 253.725479 47567.406302 
L 261.626586 47567.406302 
L 261.626586 216.637465 
L 253.725479 216.637465 
z
" style="fill:#6aaed6;opacity:0.4;stroke:#ffffff;stroke-linejoin:miter;"/>
   </g>
   <g id="patch_77">
    <path clip-path="url(#p9e561812e4)" d="M 261.626586 47567.406302 
L 269.527694 47567.406302 
L 269.527694 218.337807 
L 261.626586 218.337807 
z
" style="fill:#6aaed6;opacity:0.4;stroke:#ffffff;stroke-linejoin:miter;"/>
   </g>
   <g id="patch_78">
    <path clip-path="url(#p9e561812e4)" d="M 269.527694 47567.406302 
L 277.428802 47567.406302 
L 277.428802 222.530359 
L 269.527694 222.530359 
z
" style="fill:#6aaed6;opacity:0.4;stroke:#ffffff;stroke-linejoin:miter;"/>
   </g>
   <g id="patch_79">
    <path clip-path="url(#p9e561812e4)" d="M 277.428802 47567.406302 
L 285.32991 47567.406302 
L 285.32991 224.460211 
L 277.428802 224.460211 
z
" style="fill:#6aaed6;opacity:0.4;stroke:#ffffff;stroke-linejoin:miter;"/>
   </g>
   <g id="patch_80">
    <path clip-path="url(#p9e561812e4)" d="M 285.32991 47567.406302 
L 293.231018 47567.406302 
L 293.231018 243.06849 
L 285.32991 243.06849 
z
" style="fill:#6aaed6;opacity:0.4;stroke:#ffffff;stroke-linejoin:miter;"/>
   </g>
   <g id="patch_81">
    <path clip-path="url(#p9e561812e4)" d="M 293.231018 47567.406302 
L 301.132125 47567.406302 
L 301.132125 246.343892 
L 293.231018 246.343892 
z
" style="fill:#6aaed6;opacity:0.4;stroke:#ffffff;stroke-linejoin:miter;"/>
   </g>
   <g id="patch_82">
    <path clip-path="url(#p9e561812e4)" d="M 301.132125 47567.406302 
L 309.033233 47567.406302 
L 309.033233 248.424783 
L 301.132125 248.424783 
z
" style="fill:#6aaed6;opacity:0.4;stroke:#ffffff;stroke-linejoin:miter;"/>
   </g>
   <g id="patch_83">
    <path clip-path="url(#p9e561812e4)" d="M 309.033233 47567.406302 
L 316.934341 47567.406302 
L 316.934341 246.547852 
L 309.033233 246.547852 
z
" style="fill:#6aaed6;opacity:0.4;stroke:#ffffff;stroke-linejoin:miter;"/>
   </g>
   <g id="patch_84">
    <path clip-path="url(#p9e561812e4)" d="M 316.934341 47567.406302 
L 324.835449 47567.406302 
L 324.835449 259.465032 
L 316.934341 259.465032 
z
" style="fill:#6aaed6;opacity:0.4;stroke:#ffffff;stroke-linejoin:miter;"/>
   </g>
   <g id="patch_85">
    <path clip-path="url(#p9e561812e4)" d="M 324.835449 47567.406302 
L 332.736556 47567.406302 
L 332.736556 254.377883 
L 324.835449 254.377883 
z
" style="fill:#6aaed6;opacity:0.4;stroke:#ffffff;stroke-linejoin:miter;"/>
   </g>
   <g id="patch_86">
    <path clip-path="url(#p9e561812e4)" d="M 332.736556 47567.406302 
L 340.637664 47567.406302 
L 340.637664 261.169992 
L 332.736556 261.169992 
z
" style="fill:#6aaed6;opacity:0.4;stroke:#ffffff;stroke-linejoin:miter;"/>
   </g>
   <g id="patch_87">
    <path clip-path="url(#p9e561812e4)" d="M 340.637664 47567.406302 
L 348.538772 47567.406302 
L 348.538772 267.776195 
L 340.637664 267.776195 
z
" style="fill:#6aaed6;opacity:0.4;stroke:#ffffff;stroke-linejoin:miter;"/>
   </g>
   <g id="patch_88">
    <path clip-path="url(#p9e561812e4)" d="M 348.538772 47567.406302 
L 356.43988 47567.406302 
L 356.43988 270.064575 
L 348.538772 270.064575 
z
" style="fill:#6aaed6;opacity:0.4;stroke:#ffffff;stroke-linejoin:miter;"/>
   </g>
   <g id="patch_89">
    <path clip-path="url(#p9e561812e4)" d="M 356.43988 47567.406302 
L 364.340987 47567.406302 
L 364.340987 284.111834 
L 356.43988 284.111834 
z
" style="fill:#6aaed6;opacity:0.4;stroke:#ffffff;stroke-linejoin:miter;"/>
   </g>
   <g id="patch_90">
    <path clip-path="url(#p9e561812e4)" d="M 364.340987 47567.406302 
L 372.242095 47567.406302 
L 372.242095 303.379963 
L 364.340987 303.379963 
z
" style="fill:#6aaed6;opacity:0.4;stroke:#ffffff;stroke-linejoin:miter;"/>
   </g>
   <g id="patch_91">
    <path clip-path="url(#p9e561812e4)" d="M 372.242095 47567.406302 
L 380.143203 47567.406302 
L 380.143203 286.486137 
L 372.242095 286.486137 
z
" style="fill:#6aaed6;opacity:0.4;stroke:#ffffff;stroke-linejoin:miter;"/>
   </g>
   <g id="patch_92">
    <path clip-path="url(#p9e561812e4)" d="M 380.143203 47567.406302 
L 388.044311 47567.406302 
L 388.044311 278.055453 
L 380.143203 278.055453 
z
" style="fill:#6aaed6;opacity:0.4;stroke:#ffffff;stroke-linejoin:miter;"/>
   </g>
   <g id="patch_93">
    <path clip-path="url(#p9e561812e4)" d="M 388.044311 47567.406302 
L 395.945419 47567.406302 
L 395.945419 266.652744 
L 388.044311 266.652744 
z
" style="fill:#6aaed6;opacity:0.4;stroke:#ffffff;stroke-linejoin:miter;"/>
   </g>
   <g id="patch_94">
    <path clip-path="url(#p9e561812e4)" d="M 395.945419 47567.406302 
L 403.846526 47567.406302 
L 403.846526 280.589273 
L 395.945419 280.589273 
z
" style="fill:#6aaed6;opacity:0.4;stroke:#ffffff;stroke-linejoin:miter;"/>
   </g>
   <g id="patch_95">
    <path clip-path="url(#p9e561812e4)" d="M 403.846526 47567.406302 
L 411.747634 47567.406302 
L 411.747634 274.759947 
L 403.846526 274.759947 
z
" style="fill:#6aaed6;opacity:0.4;stroke:#ffffff;stroke-linejoin:miter;"/>
   </g>
   <g id="patch_96">
    <path clip-path="url(#p9e561812e4)" d="M 411.747634 47567.406302 
L 419.648742 47567.406302 
L 419.648742 329.473024 
L 411.747634 329.473024 
z
" style="fill:#6aaed6;opacity:0.4;stroke:#ffffff;stroke-linejoin:miter;"/>
   </g>
   <g id="patch_97">
    <path clip-path="url(#p9e561812e4)" d="M 419.648742 47567.406302 
L 427.54985 47567.406302 
L 427.54985 346.840809 
L 419.648742 346.840809 
z
" style="fill:#6aaed6;opacity:0.4;stroke:#ffffff;stroke-linejoin:miter;"/>
   </g>
   <g id="patch_98">
    <path clip-path="url(#p9e561812e4)" d="M 427.54985 47567.406302 
L 435.450957 47567.406302 
L 435.450957 309.005328 
L 427.54985 309.005328 
z
" style="fill:#6aaed6;opacity:0.4;stroke:#ffffff;stroke-linejoin:miter;"/>
   </g>
   <g id="patch_99">
    <path clip-path="url(#p9e561812e4)" d="M 435.450957 47567.406302 
L 443.352065 47567.406302 
L 443.352065 355.151972 
L 435.450957 355.151972 
z
" style="fill:#6aaed6;opacity:0.4;stroke:#ffffff;stroke-linejoin:miter;"/>
   </g>
   <g id="patch_100">
    <path clip-path="url(#p9e561812e4)" d="M 443.352065 47567.406302 
L 451.253173 47567.406302 
L 451.253173 369.36 
L 443.352065 369.36 
z
" style="fill:#6aaed6;opacity:0.4;stroke:#ffffff;stroke-linejoin:miter;"/>
   </g>
   <g id="patch_101">
    <path clip-path="url(#p9e561812e4)" d="M 451.253173 47567.406302 
L 459.154281 47567.406302 
L 459.154281 355.151972 
L 451.253173 355.151972 
z
" style="fill:#6aaed6;opacity:0.4;stroke:#ffffff;stroke-linejoin:miter;"/>
   </g>
   <g id="patch_102">
    <path clip-path="url(#p9e561812e4)" d="M 459.154281 47567.406302 
L 467.055388 47567.406302 
L 467.055388 318.424754 
L 459.154281 318.424754 
z
" style="fill:#6aaed6;opacity:0.4;stroke:#ffffff;stroke-linejoin:miter;"/>
   </g>
   <g id="patch_103">
    <path clip-path="url(#p9e561812e4)" d="M 72 47567.406302 
L 80.502857 47567.406302 
L 80.502857 66.96 
L 72 66.96 
z
" style="fill:#2070b4;opacity:0.4;stroke:#ffffff;stroke-linejoin:miter;"/>
   </g>
   <g id="patch_104">
    <path clip-path="url(#p9e561812e4)" d="M 80.502857 47567.406302 
L 89.005714 47567.406302 
L 89.005714 90.636467 
L 80.502857 90.636467 
z
" style="fill:#2070b4;opacity:0.4;stroke:#ffffff;stroke-linejoin:miter;"/>
   </g>
   <g id="patch_105">
    <path clip-path="url(#p9e561812e4)" d="M 89.005714 47567.406302 
L 97.508571 47567.406302 
L 97.508571 101.213268 
L 89.005714 101.213268 
z
" style="fill:#2070b4;opacity:0.4;stroke:#ffffff;stroke-linejoin:miter;"/>
   </g>
   <g id="patch_106">
    <path clip-path="url(#p9e561812e4)" d="M 97.508571 47567.406302 
L 106.011429 47567.406302 
L 106.011429 109.27475 
L 97.508571 109.27475 
z
" style="fill:#2070b4;opacity:0.4;stroke:#ffffff;stroke-linejoin:miter;"/>
   </g>
   <g id="patch_107">
    <path clip-path="url(#p9e561812e4)" d="M 106.011429 47567.406302 
L 114.514286 47567.406302 
L 114.514286 116.549255 
L 106.011429 116.549255 
z
" style="fill:#2070b4;opacity:0.4;stroke:#ffffff;stroke-linejoin:miter;"/>
   </g>
   <g id="patch_108">
    <path clip-path="url(#p9e561812e4)" d="M 114.514286 47567.406302 
L 123.017143 47567.406302 
L 123.017143 124.141451 
L 114.514286 124.141451 
z
" style="fill:#2070b4;opacity:0.4;stroke:#ffffff;stroke-linejoin:miter;"/>
   </g>
   <g id="patch_109">
    <path clip-path="url(#p9e561812e4)" d="M 123.017143 47567.406302 
L 131.52 47567.406302 
L 131.52 129.914984 
L 123.017143 129.914984 
z
" style="fill:#2070b4;opacity:0.4;stroke:#ffffff;stroke-linejoin:miter;"/>
   </g>
   <g id="patch_110">
    <path clip-path="url(#p9e561812e4)" d="M 131.52 47567.406302 
L 140.022857 47567.406302 
L 140.022857 137.335601 
L 131.52 137.335601 
z
" style="fill:#2070b4;opacity:0.4;stroke:#ffffff;stroke-linejoin:miter;"/>
   </g>
   <g id="patch_111">
    <path clip-path="url(#p9e561812e4)" d="M 140.022857 47567.406302 
L 148.525714 47567.406302 
L 148.525714 142.89067 
L 140.022857 142.89067 
z
" style="fill:#2070b4;opacity:0.4;stroke:#ffffff;stroke-linejoin:miter;"/>
   </g>
   <g id="patch_112">
    <path clip-path="url(#p9e561812e4)" d="M 148.525714 47567.406302 
L 157.028571 47567.406302 
L 157.028571 148.416268 
L 148.525714 148.416268 
z
" style="fill:#2070b4;opacity:0.4;stroke:#ffffff;stroke-linejoin:miter;"/>
   </g>
   <g id="patch_113">
    <path clip-path="url(#p9e561812e4)" d="M 157.028571 47567.406302 
L 165.531429 47567.406302 
L 165.531429 155.774492 
L 157.028571 155.774492 
z
" style="fill:#2070b4;opacity:0.4;stroke:#ffffff;stroke-linejoin:miter;"/>
   </g>
   <g id="patch_114">
    <path clip-path="url(#p9e561812e4)" d="M 165.531429 47567.406302 
L 174.034286 47567.406302 
L 174.034286 161.250103 
L 165.531429 161.250103 
z
" style="fill:#2070b4;opacity:0.4;stroke:#ffffff;stroke-linejoin:miter;"/>
   </g>
   <g id="patch_115">
    <path clip-path="url(#p9e561812e4)" d="M 174.034286 47567.406302 
L 182.537143 47567.406302 
L 182.537143 167.02856 
L 174.034286 167.02856 
z
" style="fill:#2070b4;opacity:0.4;stroke:#ffffff;stroke-linejoin:miter;"/>
   </g>
   <g id="patch_116">
    <path clip-path="url(#p9e561812e4)" d="M 182.537143 47567.406302 
L 191.04 47567.406302 
L 191.04 171.518515 
L 182.537143 171.518515 
z
" style="fill:#2070b4;opacity:0.4;stroke:#ffffff;stroke-linejoin:miter;"/>
   </g>
   <g id="patch_117">
    <path clip-path="url(#p9e561812e4)" d="M 191.04 47567.406302 
L 199.542857 47567.406302 
L 199.542857 177.865841 
L 191.04 177.865841 
z
" style="fill:#2070b4;opacity:0.4;stroke:#ffffff;stroke-linejoin:miter;"/>
   </g>
   <g id="patch_118">
    <path clip-path="url(#p9e561812e4)" d="M 199.542857 47567.406302 
L 208.045714 47567.406302 
L 208.045714 184.488676 
L 199.542857 184.488676 
z
" style="fill:#2070b4;opacity:0.4;stroke:#ffffff;stroke-linejoin:miter;"/>
   </g>
   <g id="patch_119">
    <path clip-path="url(#p9e561812e4)" d="M 208.045714 47567.406302 
L 216.548571 47567.406302 
L 216.548571 187.715554 
L 208.045714 187.715554 
z
" style="fill:#2070b4;opacity:0.4;stroke:#ffffff;stroke-linejoin:miter;"/>
   </g>
   <g id="patch_120">
    <path clip-path="url(#p9e561812e4)" d="M 216.548571 47567.406302 
L 225.051429 47567.406302 
L 225.051429 195.027454 
L 216.548571 195.027454 
z
" style="fill:#2070b4;opacity:0.4;stroke:#ffffff;stroke-linejoin:miter;"/>
   </g>
   <g id="patch_121">
    <path clip-path="url(#p9e561812e4)" d="M 225.051429 47567.406302 
L 233.554286 47567.406302 
L 233.554286 200.411999 
L 225.051429 200.411999 
z
" style="fill:#2070b4;opacity:0.4;stroke:#ffffff;stroke-linejoin:miter;"/>
   </g>
   <g id="patch_122">
    <path clip-path="url(#p9e561812e4)" d="M 233.554286 47567.406302 
L 242.057143 47567.406302 
L 242.057143 204.601015 
L 233.554286 204.601015 
z
" style="fill:#2070b4;opacity:0.4;stroke:#ffffff;stroke-linejoin:miter;"/>
   </g>
   <g id="patch_123">
    <path clip-path="url(#p9e561812e4)" d="M 242.057143 47567.406302 
L 250.56 47567.406302 
L 250.56 211.942374 
L 242.057143 211.942374 
z
" style="fill:#2070b4;opacity:0.4;stroke:#ffffff;stroke-linejoin:miter;"/>
   </g>
   <g id="patch_124">
    <path clip-path="url(#p9e561812e4)" d="M 250.56 47567.406302 
L 259.062857 47567.406302 
L 259.062857 215.603936 
L 250.56 215.603936 
z
" style="fill:#2070b4;opacity:0.4;stroke:#ffffff;stroke-linejoin:miter;"/>
   </g>
   <g id="patch_125">
    <path clip-path="url(#p9e561812e4)" d="M 259.062857 47567.406302 
L 267.565714 47567.406302 
L 267.565714 219.441037 
L 259.062857 219.441037 
z
" style="fill:#2070b4;opacity:0.4;stroke:#ffffff;stroke-linejoin:miter;"/>
   </g>
   <g id="patch_126">
    <path clip-path="url(#p9e561812e4)" d="M 267.565714 47567.406302 
L 276.068571 47567.406302 
L 276.068571 223.639503 
L 267.565714 223.639503 
z
" style="fill:#2070b4;opacity:0.4;stroke:#ffffff;stroke-linejoin:miter;"/>
   </g>
   <g id="patch_127">
    <path clip-path="url(#p9e561812e4)" d="M 276.068571 47567.406302 
L 284.571429 47567.406302 
L 284.571429 228.221848 
L 276.068571 228.221848 
z
" style="fill:#2070b4;opacity:0.4;stroke:#ffffff;stroke-linejoin:miter;"/>
   </g>
   <g id="patch_128">
    <path clip-path="url(#p9e561812e4)" d="M 284.571429 47567.406302 
L 293.074286 47567.406302 
L 293.074286 241.487751 
L 284.571429 241.487751 
z
" style="fill:#2070b4;opacity:0.4;stroke:#ffffff;stroke-linejoin:miter;"/>
   </g>
   <g id="patch_129">
    <path clip-path="url(#p9e561812e4)" d="M 293.074286 47567.406302 
L 301.577143 47567.406302 
L 301.577143 238.236689 
L 293.074286 238.236689 
z
" style="fill:#2070b4;opacity:0.4;stroke:#ffffff;stroke-linejoin:miter;"/>
   </g>
   <g id="patch_130">
    <path clip-path="url(#p9e561812e4)" d="M 301.577143 47567.406302 
L 310.08 47567.406302 
L 310.08 242.598237 
L 301.577143 242.598237 
z
" style="fill:#2070b4;opacity:0.4;stroke:#ffffff;stroke-linejoin:miter;"/>
   </g>
   <g id="patch_131">
    <path clip-path="url(#p9e561812e4)" d="M 310.08 47567.406302 
L 318.582857 47567.406302 
L 318.582857 257.89106 
L 310.08 257.89106 
z
" style="fill:#2070b4;opacity:0.4;stroke:#ffffff;stroke-linejoin:miter;"/>
   </g>
   <g id="patch_132">
    <path clip-path="url(#p9e561812e4)" d="M 318.582857 47567.406302 
L 327.085714 47567.406302 
L 327.085714 261.169992 
L 318.582857 261.169992 
z
" style="fill:#2070b4;opacity:0.4;stroke:#ffffff;stroke-linejoin:miter;"/>
   </g>
   <g id="patch_133">
    <path clip-path="url(#p9e561812e4)" d="M 327.085714 47567.406302 
L 335.588571 47567.406302 
L 335.588571 256.181916 
L 327.085714 256.181916 
z
" style="fill:#2070b4;opacity:0.4;stroke:#ffffff;stroke-linejoin:miter;"/>
   </g>
   <g id="patch_134">
    <path clip-path="url(#p9e561812e4)" d="M 335.588571 47567.406302 
L 344.091429 47567.406302 
L 344.091429 262.133515 
L 335.588571 262.133515 
z
" style="fill:#2070b4;opacity:0.4;stroke:#ffffff;stroke-linejoin:miter;"/>
   </g>
   <g id="patch_135">
    <path clip-path="url(#p9e561812e4)" d="M 344.091429 47567.406302 
L 352.594286 47567.406302 
L 352.594286 273.76952 
L 344.091429 273.76952 
z
" style="fill:#2070b4;opacity:0.4;stroke:#ffffff;stroke-linejoin:miter;"/>
   </g>
   <g id="patch_136">
    <path clip-path="url(#p9e561812e4)" d="M 352.594286 47567.406302 
L 361.097143 47567.406302 
L 361.097143 301.802427 
L 352.594286 301.802427 
z
" style="fill:#2070b4;opacity:0.4;stroke:#ffffff;stroke-linejoin:miter;"/>
   </g>
   <g id="patch_137">
    <path clip-path="url(#p9e561812e4)" d="M 361.097143 47567.406302 
L 369.6 47567.406302 
L 369.6 289.586047 
L 361.097143 289.586047 
z
" style="fill:#2070b4;opacity:0.4;stroke:#ffffff;stroke-linejoin:miter;"/>
   </g>
   <g id="patch_138">
    <path clip-path="url(#p9e561812e4)" d="M 369.6 47567.406302 
L 378.102857 47567.406302 
L 378.102857 297.689109 
L 369.6 297.689109 
z
" style="fill:#2070b4;opacity:0.4;stroke:#ffffff;stroke-linejoin:miter;"/>
   </g>
   <g id="patch_139">
    <path clip-path="url(#p9e561812e4)" d="M 378.102857 47567.406302 
L 386.605714 47567.406302 
L 386.605714 313.85079 
L 378.102857 313.85079 
z
" style="fill:#2070b4;opacity:0.4;stroke:#ffffff;stroke-linejoin:miter;"/>
   </g>
   <g id="patch_140">
    <path clip-path="url(#p9e561812e4)" d="M 386.605714 47567.406302 
L 395.108571 47567.406302 
L 395.108571 346.840809 
L 386.605714 346.840809 
z
" style="fill:#2070b4;opacity:0.4;stroke:#ffffff;stroke-linejoin:miter;"/>
   </g>
   <g id="patch_141">
    <path clip-path="url(#p9e561812e4)" d="M 395.108571 47567.406302 
L 403.611429 47567.406302 
L 403.611429 329.473024 
L 395.108571 329.473024 
z
" style="fill:#2070b4;opacity:0.4;stroke:#ffffff;stroke-linejoin:miter;"/>
   </g>
   <g id="patch_142">
    <path clip-path="url(#p9e561812e4)" d="M 403.611429 47567.406302 
L 412.114286 47567.406302 
L 412.114286 311.285215 
L 403.611429 311.285215 
z
" style="fill:#2070b4;opacity:0.4;stroke:#ffffff;stroke-linejoin:miter;"/>
   </g>
   <g id="patch_143">
    <path clip-path="url(#p9e561812e4)" d="M 412.114286 47567.406302 
L 420.617143 47567.406302 
L 420.617143 346.840809 
L 412.114286 346.840809 
z
" style="fill:#2070b4;opacity:0.4;stroke:#ffffff;stroke-linejoin:miter;"/>
   </g>
   <g id="patch_144">
    <path clip-path="url(#p9e561812e4)" d="M 420.617143 47567.406302 
L 429.12 47567.406302 
L 429.12 47567.406302 
L 420.617143 47567.406302 
z
" style="fill:#2070b4;opacity:0.4;stroke:#ffffff;stroke-linejoin:miter;"/>
   </g>
   <g id="patch_145">
    <path clip-path="url(#p9e561812e4)" d="M 429.12 47567.406302 
L 437.622857 47567.406302 
L 437.622857 369.36 
L 429.12 369.36 
z
" style="fill:#2070b4;opacity:0.4;stroke:#ffffff;stroke-linejoin:miter;"/>
   </g>
   <g id="patch_146">
    <path clip-path="url(#p9e561812e4)" d="M 437.622857 47567.406302 
L 446.125714 47567.406302 
L 446.125714 47567.406302 
L 437.622857 47567.406302 
z
" style="fill:#2070b4;opacity:0.4;stroke:#ffffff;stroke-linejoin:miter;"/>
   </g>
   <g id="patch_147">
    <path clip-path="url(#p9e561812e4)" d="M 446.125714 47567.406302 
L 454.628571 47567.406302 
L 454.628571 47567.406302 
L 446.125714 47567.406302 
z
" style="fill:#2070b4;opacity:0.4;stroke:#ffffff;stroke-linejoin:miter;"/>
   </g>
   <g id="patch_148">
    <path clip-path="url(#p9e561812e4)" d="M 454.628571 47567.406302 
L 463.131429 47567.406302 
L 463.131429 47567.406302 
L 454.628571 47567.406302 
z
" style="fill:#2070b4;opacity:0.4;stroke:#ffffff;stroke-linejoin:miter;"/>
   </g>
   <g id="patch_149">
    <path clip-path="url(#p9e561812e4)" d="M 463.131429 47567.406302 
L 471.634286 47567.406302 
L 471.634286 369.36 
L 463.131429 369.36 
z
" style="fill:#2070b4;opacity:0.4;stroke:#ffffff;stroke-linejoin:miter;"/>
   </g>
   <g id="patch_150">
    <path clip-path="url(#p9e561812e4)" d="M 471.634286 47567.406302 
L 480.137143 47567.406302 
L 480.137143 47567.406302 
L 471.634286 47567.406302 
z
" style="fill:#2070b4;opacity:0.4;stroke:#ffffff;stroke-linejoin:miter;"/>
   </g>
   <g id="patch_151">
    <path clip-path="url(#p9e561812e4)" d="M 480.137143 47567.406302 
L 488.64 47567.406302 
L 488.64 355.151972 
L 480.137143 355.151972 
z
" style="fill:#2070b4;opacity:0.4;stroke:#ffffff;stroke-linejoin:miter;"/>
   </g>
   <g id="patch_152">
    <path clip-path="url(#p9e561812e4)" d="M 488.64 47567.406302 
L 497.142857 47567.406302 
L 497.142857 332.632781 
L 488.64 332.632781 
z
" style="fill:#2070b4;opacity:0.4;stroke:#ffffff;stroke-linejoin:miter;"/>
   </g>
   <g id="patch_153">
    <path d="M 72 384.48 
L 72 51.84 
" style="fill:none;stroke:#ffffff;stroke-linecap:square;stroke-linejoin:miter;stroke-width:1.25;"/>
   </g>
   <g id="patch_154">
    <path d="M 518.4 384.48 
L 518.4 51.84 
" style="fill:none;stroke:#ffffff;stroke-linecap:square;stroke-linejoin:miter;stroke-width:1.25;"/>
   </g>
   <g id="patch_155">
    <path d="M 72 384.48 
L 518.4 384.48 
" style="fill:none;stroke:#ffffff;stroke-linecap:square;stroke-linejoin:miter;stroke-width:1.25;"/>
   </g>
   <g id="patch_156">
    <path d="M 72 51.84 
L 518.4 51.84 
" style="fill:none;stroke:#ffffff;stroke-linecap:square;stroke-linejoin:miter;stroke-width:1.25;"/>
   </g>
   <g id="text_17">
    <!--     -->
    <defs>
     <path d="M 19.671875 64.796875 
L 19.671875 37.40625 
L 32.078125 37.40625 
Q 38.96875 37.40625 42.71875 40.96875 
Q 46.484375 44.53125 46.484375 51.125 
Q 46.484375 57.671875 42.71875 61.234375 
Q 38.96875 64.796875 32.078125 64.796875 
z
M 9.8125 72.90625 
L 32.078125 72.90625 
Q 44.34375 72.90625 50.609375 67.359375 
Q 56.890625 61.8125 56.890625 51.125 
Q 56.890625 40.328125 50.609375 34.8125 
Q 44.34375 29.296875 32.078125 29.296875 
L 19.671875 29.296875 
L 19.671875 0 
L 9.8125 0 
z
" id="DejaVuSans-1056"/>
     <path d="M 34.28125 27.484375 
Q 23.390625 27.484375 19.1875 25 
Q 14.984375 22.515625 14.984375 16.5 
Q 14.984375 11.71875 18.140625 8.90625 
Q 21.296875 6.109375 26.703125 6.109375 
Q 34.1875 6.109375 38.703125 11.40625 
Q 43.21875 16.703125 43.21875 25.484375 
L 43.21875 27.484375 
z
M 52.203125 31.203125 
L 52.203125 0 
L 43.21875 0 
L 43.21875 8.296875 
Q 40.140625 3.328125 35.546875 0.953125 
Q 30.953125 -1.421875 24.3125 -1.421875 
Q 15.921875 -1.421875 10.953125 3.296875 
Q 6 8.015625 6 15.921875 
Q 6 25.140625 12.171875 29.828125 
Q 18.359375 34.515625 30.609375 34.515625 
L 43.21875 34.515625 
L 43.21875 35.40625 
Q 43.21875 41.609375 39.140625 45 
Q 35.0625 48.390625 27.6875 48.390625 
Q 23 48.390625 18.546875 47.265625 
Q 14.109375 46.140625 10.015625 43.890625 
L 10.015625 52.203125 
Q 14.9375 54.109375 19.578125 55.046875 
Q 24.21875 56 28.609375 56 
Q 40.484375 56 46.34375 49.84375 
Q 52.203125 43.703125 52.203125 31.203125 
z
" id="DejaVuSans-1072"/>
     <path d="M 48.78125 52.59375 
L 48.78125 44.1875 
Q 44.96875 46.296875 41.140625 47.34375 
Q 37.3125 48.390625 33.40625 48.390625 
Q 24.65625 48.390625 19.8125 42.84375 
Q 14.984375 37.3125 14.984375 27.296875 
Q 14.984375 17.28125 19.8125 11.734375 
Q 24.65625 6.203125 33.40625 6.203125 
Q 37.3125 6.203125 41.140625 7.25 
Q 44.96875 8.296875 48.78125 10.40625 
L 48.78125 2.09375 
Q 45.015625 0.34375 40.984375 -0.53125 
Q 36.96875 -1.421875 32.421875 -1.421875 
Q 20.0625 -1.421875 12.78125 6.34375 
Q 5.515625 14.109375 5.515625 27.296875 
Q 5.515625 40.671875 12.859375 48.328125 
Q 20.21875 56 33.015625 56 
Q 37.15625 56 41.109375 55.140625 
Q 45.0625 54.296875 48.78125 52.59375 
z
" id="DejaVuSans-1089"/>
     <path d="M 56.296875 54.6875 
L 56.296875 0 
L 47.265625 0 
L 47.265625 47.515625 
L 18.109375 47.515625 
L 18.109375 0 
L 9.078125 0 
L 9.078125 54.6875 
z
" id="DejaVuSans-1087"/>
     <path d="M 18.109375 8.203125 
L 18.109375 -20.796875 
L 9.078125 -20.796875 
L 9.078125 54.6875 
L 18.109375 54.6875 
L 18.109375 46.390625 
Q 20.953125 51.265625 25.265625 53.625 
Q 29.59375 56 35.59375 56 
Q 45.5625 56 51.78125 48.09375 
Q 58.015625 40.1875 58.015625 27.296875 
Q 58.015625 14.40625 51.78125 6.484375 
Q 45.5625 -1.421875 35.59375 -1.421875 
Q 29.59375 -1.421875 25.265625 0.953125 
Q 20.953125 3.328125 18.109375 8.203125 
z
M 48.6875 27.296875 
Q 48.6875 37.203125 44.609375 42.84375 
Q 40.53125 48.484375 33.40625 48.484375 
Q 26.265625 48.484375 22.1875 42.84375 
Q 18.109375 37.203125 18.109375 27.296875 
Q 18.109375 17.390625 22.1875 11.75 
Q 26.265625 6.109375 33.40625 6.109375 
Q 40.53125 6.109375 44.609375 11.75 
Q 48.6875 17.390625 48.6875 27.296875 
z
" id="DejaVuSans-1088"/>
     <path d="M 56.203125 29.59375 
L 56.203125 25.203125 
L 14.890625 25.203125 
Q 15.484375 15.921875 20.484375 11.0625 
Q 25.484375 6.203125 34.421875 6.203125 
Q 39.59375 6.203125 44.453125 7.46875 
Q 49.3125 8.734375 54.109375 11.28125 
L 54.109375 2.78125 
Q 49.265625 0.734375 44.1875 -0.34375 
Q 39.109375 -1.421875 33.890625 -1.421875 
Q 20.796875 -1.421875 13.15625 6.1875 
Q 5.515625 13.8125 5.515625 26.8125 
Q 5.515625 40.234375 12.765625 48.109375 
Q 20.015625 56 32.328125 56 
Q 43.359375 56 49.78125 48.890625 
Q 56.203125 41.796875 56.203125 29.59375 
z
M 47.21875 32.234375 
Q 47.125 39.59375 43.09375 43.984375 
Q 39.0625 48.390625 32.421875 48.390625 
Q 24.90625 48.390625 20.390625 44.140625 
Q 15.875 39.890625 15.1875 32.171875 
z
" id="DejaVuSans-1077"/>
     <path d="M 21.625 7.171875 
L 47.703125 7.171875 
L 47.703125 47.515625 
L 28.8125 47.515625 
L 28.8125 40.671875 
Q 28.8125 20.5625 23.046875 9.8125 
z
M 8.59375 7.171875 
Q 13.03125 9.125 14.984375 13.28125 
Q 19.78125 23.578125 19.78125 44.34375 
L 19.78125 54.6875 
L 56.734375 54.6875 
L 56.734375 7.171875 
L 63.921875 7.171875 
L 63.921875 -13.8125 
L 56.734375 -13.8125 
L 56.734375 0 
L 12.40625 0 
L 12.40625 -13.8125 
L 5.21875 -13.8125 
L 5.21875 7.171875 
z
" id="DejaVuSans-1076"/>
     <path d="M 3.71875 0 
L 3.71875 7.46875 
Q 12.59375 8.84375 15.328125 14.984375 
Q 18.65625 23.640625 18.65625 45.75 
L 18.65625 54.6875 
L 55.609375 54.6875 
L 55.609375 0 
L 46.625 0 
L 46.625 47.515625 
L 27.640625 47.515625 
L 27.640625 42.09375 
Q 27.640625 21 23.34375 11.53125 
Q 18.75 1.421875 3.71875 0 
z
" id="DejaVuSans-1083"/>
     <path d="M 9.078125 54.6875 
L 18.109375 54.6875 
L 18.109375 32.375 
L 47.265625 32.375 
L 47.265625 54.6875 
L 56.296875 54.6875 
L 56.296875 0 
L 47.265625 0 
L 47.265625 25.203125 
L 18.109375 25.203125 
L 18.109375 0 
L 9.078125 0 
z
" id="DejaVuSans-1085"/>
     <path d="M 55.90625 54.6875 
L 55.90625 0 
L 46.96875 0 
L 46.96875 43.890625 
L 20.609375 0 
L 9.078125 0 
L 9.078125 54.6875 
L 18.015625 54.6875 
L 18.015625 10.890625 
L 44.34375 54.6875 
z
" id="DejaVuSans-1080"/>
     <path id="DejaVuSans-32"/>
     <path d="M 9.078125 54.6875 
L 18.015625 54.6875 
L 18.015625 29 
L 43.359375 54.6875 
L 54.390625 54.6875 
L 33.5 33.546875 
L 57.078125 0 
L 47.015625 0 
L 27.640625 27.59375 
L 18.015625 17.828125 
L 18.015625 0 
L 9.078125 0 
z
" id="DejaVuSans-1082"/>
     <path d="M 30.609375 48.390625 
Q 23.390625 48.390625 19.1875 42.75 
Q 14.984375 37.109375 14.984375 27.296875 
Q 14.984375 17.484375 19.15625 11.84375 
Q 23.34375 6.203125 30.609375 6.203125 
Q 37.796875 6.203125 41.984375 11.859375 
Q 46.1875 17.53125 46.1875 27.296875 
Q 46.1875 37.015625 41.984375 42.703125 
Q 37.796875 48.390625 30.609375 48.390625 
z
M 30.609375 56 
Q 42.328125 56 49.015625 48.375 
Q 55.71875 40.765625 55.71875 27.296875 
Q 55.71875 13.875 49.015625 6.21875 
Q 42.328125 -1.421875 30.609375 -1.421875 
Q 18.84375 -1.421875 12.171875 6.21875 
Q 5.515625 13.875 5.515625 27.296875 
Q 5.515625 40.765625 12.171875 48.375 
Q 18.84375 56 30.609375 56 
z
" id="DejaVuSans-1086"/>
     <path d="M 2.9375 54.6875 
L 55.328125 54.6875 
L 55.328125 47.515625 
L 33.546875 47.515625 
L 33.546875 0 
L 24.703125 0 
L 24.703125 47.515625 
L 2.9375 47.515625 
z
" id="DejaVuSans-1090"/>
     <path d="M 55.90625 54.6875 
L 55.90625 0 
L 46.96875 0 
L 46.96875 43.890625 
L 20.609375 0 
L 9.078125 0 
L 9.078125 54.6875 
L 18.015625 54.6875 
L 18.015625 10.890625 
L 44.34375 54.6875 
z
M 17.21875 75.515625 
L 22.984375 75.515625 
Q 23.515625 71.859375 25.875 70.015625 
Q 28.25 68.1875 32.5 68.1875 
Q 36.703125 68.1875 39.046875 70 
Q 41.390625 71.8125 42.015625 75.515625 
L 47.78125 75.515625 
Q 47.296875 68.53125 43.4375 65.015625 
Q 39.578125 61.5 32.5 61.5 
Q 25.421875 61.5 21.5625 65.015625 
Q 17.703125 68.53125 17.21875 75.515625 
z
" id="DejaVuSans-1081"/>
     <path d="M 56.296875 0 
L 9.078125 0 
L 9.078125 54.6875 
L 18.109375 54.6875 
L 18.109375 7.171875 
L 47.265625 7.171875 
L 47.265625 54.6875 
L 56.296875 54.6875 
L 56.296875 7.171875 
L 63.484375 7.171875 
L 63.484375 -13.8125 
L 56.296875 -13.8125 
z
" id="DejaVuSans-1094"/>
     <path d="M 18.453125 38.921875 
Q 18.453125 34.859375 21.578125 32.5625 
Q 24.703125 30.28125 30.515625 30.28125 
L 42.625 30.28125 
L 42.625 47.515625 
L 30.515625 47.515625 
Q 24.703125 47.515625 21.578125 45.265625 
Q 18.453125 43.015625 18.453125 38.921875 
z
M 5.671875 0 
L 22.359375 23.96875 
Q 16.703125 25.25 12.9375 28.59375 
Q 9.1875 31.9375 9.1875 38.921875 
Q 9.1875 46.828125 14.421875 50.75 
Q 19.671875 54.6875 30.28125 54.6875 
L 51.65625 54.6875 
L 51.65625 0 
L 42.625 0 
L 42.625 23.09375 
L 31.453125 23.09375 
L 15.328125 0 
z
" id="DejaVuSans-1103"/>
     <path d="M 9.078125 54.6875 
L 22.21875 54.6875 
L 37.75 18.0625 
L 53.328125 54.6875 
L 66.359375 54.6875 
L 66.359375 0 
L 57.328125 0 
L 57.328125 46.09375 
L 42.234375 10.5 
L 33.25 10.5 
L 18.109375 46.09375 
L 18.109375 0 
L 9.078125 0 
z
" id="DejaVuSans-1084"/>
    </defs>
    <g style="fill:#262626;" transform="translate(165.69 45.84)scale(0.12 -0.12)">
     <use xlink:href="#DejaVuSans-1056"/>
     <use x="60.302734" xlink:href="#DejaVuSans-1072"/>
     <use x="121.582031" xlink:href="#DejaVuSans-1089"/>
     <use x="176.5625" xlink:href="#DejaVuSans-1087"/>
     <use x="241.943359" xlink:href="#DejaVuSans-1088"/>
     <use x="305.419922" xlink:href="#DejaVuSans-1077"/>
     <use x="366.943359" xlink:href="#DejaVuSans-1076"/>
     <use x="436.083984" xlink:href="#DejaVuSans-1077"/>
     <use x="497.607422" xlink:href="#DejaVuSans-1083"/>
     <use x="561.523438" xlink:href="#DejaVuSans-1077"/>
     <use x="623.046875" xlink:href="#DejaVuSans-1085"/>
     <use x="688.427734" xlink:href="#DejaVuSans-1080"/>
     <use x="753.417969" xlink:href="#DejaVuSans-1077"/>
     <use x="814.941406" xlink:href="#DejaVuSans-32"/>
     <use x="846.728516" xlink:href="#DejaVuSans-1089"/>
     <use x="901.708984" xlink:href="#DejaVuSans-1082"/>
     <use x="962.109375" xlink:href="#DejaVuSans-1086"/>
     <use x="1023.291016" xlink:href="#DejaVuSans-1088"/>
     <use x="1086.767578" xlink:href="#DejaVuSans-1086"/>
     <use x="1147.949219" xlink:href="#DejaVuSans-1089"/>
     <use x="1202.929688" xlink:href="#DejaVuSans-1090"/>
     <use x="1261.181641" xlink:href="#DejaVuSans-1077"/>
     <use x="1322.705078" xlink:href="#DejaVuSans-1081"/>
     <use x="1387.695312" xlink:href="#DejaVuSans-32"/>
     <use x="1419.482422" xlink:href="#DejaVuSans-1087"/>
     <use x="1484.863281" xlink:href="#DejaVuSans-1086"/>
     <use x="1546.044922" xlink:href="#DejaVuSans-32"/>
     <use x="1577.832031" xlink:href="#DejaVuSans-1087"/>
     <use x="1643.212891" xlink:href="#DejaVuSans-1088"/>
     <use x="1706.689453" xlink:href="#DejaVuSans-1086"/>
     <use x="1767.871094" xlink:href="#DejaVuSans-1077"/>
     <use x="1829.394531" xlink:href="#DejaVuSans-1082"/>
     <use x="1889.794922" xlink:href="#DejaVuSans-1094"/>
     <use x="1957.861328" xlink:href="#DejaVuSans-1080"/>
     <use x="2022.851562" xlink:href="#DejaVuSans-1103"/>
     <use x="2083.007812" xlink:href="#DejaVuSans-1084"/>
    </g>
   </g>
   <g id="legend_1">
    <g id="patch_157">
     <path d="M 401.867031 109.077812 
L 510.7 109.077812 
Q 512.9 109.077812 512.9 106.877813 
L 512.9 59.54 
Q 512.9 57.34 510.7 57.34 
L 401.867031 57.34 
Q 399.667031 57.34 399.667031 59.54 
L 399.667031 106.877813 
Q 399.667031 109.077812 401.867031 109.077812 
z
" style="fill:#eaeaf2;opacity:0.8;stroke:#cccccc;stroke-linejoin:miter;"/>
    </g>
    <g id="patch_158">
     <path d="M 404.067031 70.098281 
L 426.067031 70.098281 
L 426.067031 62.398281 
L 404.067031 62.398281 
z
" style="fill:#c6dbef;opacity:0.4;stroke:#ffffff;stroke-linejoin:miter;"/>
    </g>
    <g id="text_18">
     <!-- x- -->
     <defs>
      <path d="M 54.890625 54.6875 
L 35.109375 28.078125 
L 55.90625 0 
L 45.3125 0 
L 29.390625 21.484375 
L 13.484375 0 
L 2.875 0 
L 24.125 28.609375 
L 4.6875 54.6875 
L 15.28125 54.6875 
L 29.78125 35.203125 
L 44.28125 54.6875 
z
" id="DejaVuSans-120"/>
      <path d="M 4.890625 31.390625 
L 31.203125 31.390625 
L 31.203125 23.390625 
L 4.890625 23.390625 
z
" id="DejaVuSans-45"/>
     </defs>
     <g style="fill:#262626;" transform="translate(434.867031 70.098281)scale(0.11 -0.11)">
      <use xlink:href="#DejaVuSans-120"/>
      <use x="59.179688" xlink:href="#DejaVuSans-45"/>
      <use x="95.263672" xlink:href="#DejaVuSans-1082"/>
      <use x="155.664062" xlink:href="#DejaVuSans-1086"/>
      <use x="216.845703" xlink:href="#DejaVuSans-1084"/>
      <use x="292.285156" xlink:href="#DejaVuSans-1087"/>
      <use x="357.666016" xlink:href="#DejaVuSans-1086"/>
      <use x="418.847656" xlink:href="#DejaVuSans-1085"/>
      <use x="484.228516" xlink:href="#DejaVuSans-1077"/>
      <use x="545.751953" xlink:href="#DejaVuSans-1085"/>
      <use x="611.132812" xlink:href="#DejaVuSans-1090"/>
     </g>
    </g>
    <g id="patch_159">
     <path d="M 404.067031 86.244219 
L 426.067031 86.244219 
L 426.067031 78.544219 
L 404.067031 78.544219 
z
" style="fill:#6aaed6;opacity:0.4;stroke:#ffffff;stroke-linejoin:miter;"/>
    </g>
    <g id="text_19">
     <!-- y- -->
     <defs>
      <path d="M 32.171875 -5.078125 
Q 28.375 -14.84375 24.75 -17.8125 
Q 21.140625 -20.796875 15.09375 -20.796875 
L 7.90625 -20.796875 
L 7.90625 -13.28125 
L 13.1875 -13.28125 
Q 16.890625 -13.28125 18.9375 -11.515625 
Q 21 -9.765625 23.484375 -3.21875 
L 25.09375 0.875 
L 2.984375 54.6875 
L 12.5 54.6875 
L 29.59375 11.921875 
L 46.6875 54.6875 
L 56.203125 54.6875 
z
" id="DejaVuSans-121"/>
     </defs>
     <g style="fill:#262626;" transform="translate(434.867031 86.244219)scale(0.11 -0.11)">
      <use xlink:href="#DejaVuSans-121"/>
      <use x="59.164062" xlink:href="#DejaVuSans-45"/>
      <use x="95.248047" xlink:href="#DejaVuSans-1082"/>
      <use x="155.648438" xlink:href="#DejaVuSans-1086"/>
      <use x="216.830078" xlink:href="#DejaVuSans-1084"/>
      <use x="292.269531" xlink:href="#DejaVuSans-1087"/>
      <use x="357.650391" xlink:href="#DejaVuSans-1086"/>
      <use x="418.832031" xlink:href="#DejaVuSans-1085"/>
      <use x="484.212891" xlink:href="#DejaVuSans-1077"/>
      <use x="545.736328" xlink:href="#DejaVuSans-1085"/>
      <use x="611.117188" xlink:href="#DejaVuSans-1090"/>
     </g>
    </g>
    <g id="patch_160">
     <path d="M 404.067031 102.390156 
L 426.067031 102.390156 
L 426.067031 94.690156 
L 404.067031 94.690156 
z
" style="fill:#2070b4;opacity:0.4;stroke:#ffffff;stroke-linejoin:miter;"/>
    </g>
    <g id="text_20">
     <!-- z- -->
     <defs>
      <path d="M 5.515625 54.6875 
L 48.1875 54.6875 
L 48.1875 46.484375 
L 14.40625 7.171875 
L 48.1875 7.171875 
L 48.1875 0 
L 4.296875 0 
L 4.296875 8.203125 
L 38.09375 47.515625 
L 5.515625 47.515625 
z
" id="DejaVuSans-122"/>
     </defs>
     <g style="fill:#262626;" transform="translate(434.867031 102.390156)scale(0.11 -0.11)">
      <use xlink:href="#DejaVuSans-122"/>
      <use x="52.490234" xlink:href="#DejaVuSans-45"/>
      <use x="88.574219" xlink:href="#DejaVuSans-1082"/>
      <use x="148.974609" xlink:href="#DejaVuSans-1086"/>
      <use x="210.15625" xlink:href="#DejaVuSans-1084"/>
      <use x="285.595703" xlink:href="#DejaVuSans-1087"/>
      <use x="350.976562" xlink:href="#DejaVuSans-1086"/>
      <use x="412.158203" xlink:href="#DejaVuSans-1085"/>
      <use x="477.539062" xlink:href="#DejaVuSans-1077"/>
      <use x="539.0625" xlink:href="#DejaVuSans-1085"/>
      <use x="604.443359" xlink:href="#DejaVuSans-1090"/>
     </g>
    </g>
   </g>
  </g>
 </g>
 <defs>
  <clipPath id="p9e561812e4">
   <rect height="332.64" width="446.4" x="72" y="51.84"/>
  </clipPath>
 </defs>
</svg>
