<?xml version="1.0" encoding="utf-8" standalone="no"?>
<!DOCTYPE svg PUBLIC "-//W3C//DTD SVG 1.1//EN"
  "http://www.w3.org/Graphics/SVG/1.1/DTD/svg11.dtd">
<svg xmlns:xlink="http://www.w3.org/1999/xlink" width="540pt" height="540pt" viewBox="0 0 540 540" xmlns="http://www.w3.org/2000/svg" version="1.1">
 <metadata>
  <rdf:RDF xmlns:dc="http://purl.org/dc/elements/1.1/" xmlns:cc="http://creativecommons.org/ns#" xmlns:rdf="http://www.w3.org/1999/02/22-rdf-syntax-ns#">
   <cc:Work>
    <dc:type rdf:resource="http://purl.org/dc/dcmitype/StillImage"/>
    <dc:date>2022-01-08T20:29:56.374241</dc:date>
    <dc:format>image/svg+xml</dc:format>
    <dc:creator>
     <cc:Agent>
      <dc:title>Matplotlib v3.5.1, https://matplotlib.org/</dc:title>
     </cc:Agent>
    </dc:creator>
   </cc:Work>
  </rdf:RDF>
 </metadata>
 <defs>
  <style type="text/css">*{stroke-linejoin: round; stroke-linecap: butt}</style>
 </defs>
 <g id="figure_1">
  <g id="patch_1">
   <path d="M 0 540 
L 540 540 
L 540 0 
L 0 0 
z
" style="fill: #ffffff"/>
  </g>
  <g id="axes_1">
   <g id="patch_2">
    <path d="M 67.5 480.6 
L 486 480.6 
L 486 64.8 
L 67.5 64.8 
z
" style="fill: #ffffff"/>
   </g>
   <g id="matplotlib.axis_1">
    <g id="xtick_1">
     <g id="line2d_1">
      <path d="M 86.522727 480.6 
L 86.522727 64.8 
" clip-path="url(#pcc938c1e1b)" style="fill: none; stroke: #cccccc; stroke-width: 1.5; stroke-linecap: round"/>
     </g>
     <g id="text_1">
      <!-- 0.0 -->
      <g style="fill: #262626" transform="translate(73.402649 505.637422)scale(0.165 -0.165)">
       <defs>
        <path id="DejaVuSans-30" d="M 2034 4250 
Q 1547 4250 1301 3770 
Q 1056 3291 1056 2328 
Q 1056 1369 1301 889 
Q 1547 409 2034 409 
Q 2525 409 2770 889 
Q 3016 1369 3016 2328 
Q 3016 3291 2770 3770 
Q 2525 4250 2034 4250 
z
M 2034 4750 
Q 2819 4750 3233 4129 
Q 3647 3509 3647 2328 
Q 3647 1150 3233 529 
Q 2819 -91 2034 -91 
Q 1250 -91 836 529 
Q 422 1150 422 2328 
Q 422 3509 836 4129 
Q 1250 4750 2034 4750 
z
" transform="scale(0.015625)"/>
        <path id="DejaVuSans-2e" d="M 684 794 
L 1344 794 
L 1344 0 
L 684 0 
L 684 794 
z
" transform="scale(0.015625)"/>
       </defs>
       <use xlink:href="#DejaVuSans-30"/>
       <use xlink:href="#DejaVuSans-2e" x="63.623047"/>
       <use xlink:href="#DejaVuSans-30" x="95.410156"/>
      </g>
     </g>
    </g>
    <g id="xtick_2">
     <g id="line2d_2">
      <path d="M 163.382231 480.6 
L 163.382231 64.8 
" clip-path="url(#pcc938c1e1b)" style="fill: none; stroke: #cccccc; stroke-width: 1.5; stroke-linecap: round"/>
     </g>
     <g id="text_2">
      <!-- 0.2 -->
      <g style="fill: #262626" transform="translate(150.262153 505.637422)scale(0.165 -0.165)">
       <defs>
        <path id="DejaVuSans-32" d="M 1228 531 
L 3431 531 
L 3431 0 
L 469 0 
L 469 531 
Q 828 903 1448 1529 
Q 2069 2156 2228 2338 
Q 2531 2678 2651 2914 
Q 2772 3150 2772 3378 
Q 2772 3750 2511 3984 
Q 2250 4219 1831 4219 
Q 1534 4219 1204 4116 
Q 875 4013 500 3803 
L 500 4441 
Q 881 4594 1212 4672 
Q 1544 4750 1819 4750 
Q 2544 4750 2975 4387 
Q 3406 4025 3406 3419 
Q 3406 3131 3298 2873 
Q 3191 2616 2906 2266 
Q 2828 2175 2409 1742 
Q 1991 1309 1228 531 
z
" transform="scale(0.015625)"/>
       </defs>
       <use xlink:href="#DejaVuSans-30"/>
       <use xlink:href="#DejaVuSans-2e" x="63.623047"/>
       <use xlink:href="#DejaVuSans-32" x="95.410156"/>
      </g>
     </g>
    </g>
    <g id="xtick_3">
     <g id="line2d_3">
      <path d="M 240.241736 480.6 
L 240.241736 64.8 
" clip-path="url(#pcc938c1e1b)" style="fill: none; stroke: #cccccc; stroke-width: 1.5; stroke-linecap: round"/>
     </g>
     <g id="text_3">
      <!-- 0.4 -->
      <g style="fill: #262626" transform="translate(227.121657 505.637422)scale(0.165 -0.165)">
       <defs>
        <path id="DejaVuSans-34" d="M 2419 4116 
L 825 1625 
L 2419 1625 
L 2419 4116 
z
M 2253 4666 
L 3047 4666 
L 3047 1625 
L 3713 1625 
L 3713 1100 
L 3047 1100 
L 3047 0 
L 2419 0 
L 2419 1100 
L 313 1100 
L 313 1709 
L 2253 4666 
z
" transform="scale(0.015625)"/>
       </defs>
       <use xlink:href="#DejaVuSans-30"/>
       <use xlink:href="#DejaVuSans-2e" x="63.623047"/>
       <use xlink:href="#DejaVuSans-34" x="95.410156"/>
      </g>
     </g>
    </g>
    <g id="xtick_4">
     <g id="line2d_4">
      <path d="M 317.10124 480.6 
L 317.10124 64.8 
" clip-path="url(#pcc938c1e1b)" style="fill: none; stroke: #cccccc; stroke-width: 1.5; stroke-linecap: round"/>
     </g>
     <g id="text_4">
      <!-- 0.6 -->
      <g style="fill: #262626" transform="translate(303.981162 505.637422)scale(0.165 -0.165)">
       <defs>
        <path id="DejaVuSans-36" d="M 2113 2584 
Q 1688 2584 1439 2293 
Q 1191 2003 1191 1497 
Q 1191 994 1439 701 
Q 1688 409 2113 409 
Q 2538 409 2786 701 
Q 3034 994 3034 1497 
Q 3034 2003 2786 2293 
Q 2538 2584 2113 2584 
z
M 3366 4563 
L 3366 3988 
Q 3128 4100 2886 4159 
Q 2644 4219 2406 4219 
Q 1781 4219 1451 3797 
Q 1122 3375 1075 2522 
Q 1259 2794 1537 2939 
Q 1816 3084 2150 3084 
Q 2853 3084 3261 2657 
Q 3669 2231 3669 1497 
Q 3669 778 3244 343 
Q 2819 -91 2113 -91 
Q 1303 -91 875 529 
Q 447 1150 447 2328 
Q 447 3434 972 4092 
Q 1497 4750 2381 4750 
Q 2619 4750 2861 4703 
Q 3103 4656 3366 4563 
z
" transform="scale(0.015625)"/>
       </defs>
       <use xlink:href="#DejaVuSans-30"/>
       <use xlink:href="#DejaVuSans-2e" x="63.623047"/>
       <use xlink:href="#DejaVuSans-36" x="95.410156"/>
      </g>
     </g>
    </g>
    <g id="xtick_5">
     <g id="line2d_5">
      <path d="M 393.960744 480.6 
L 393.960744 64.8 
" clip-path="url(#pcc938c1e1b)" style="fill: none; stroke: #cccccc; stroke-width: 1.5; stroke-linecap: round"/>
     </g>
     <g id="text_5">
      <!-- 0.8 -->
      <g style="fill: #262626" transform="translate(380.840666 505.637422)scale(0.165 -0.165)">
       <defs>
        <path id="DejaVuSans-38" d="M 2034 2216 
Q 1584 2216 1326 1975 
Q 1069 1734 1069 1313 
Q 1069 891 1326 650 
Q 1584 409 2034 409 
Q 2484 409 2743 651 
Q 3003 894 3003 1313 
Q 3003 1734 2745 1975 
Q 2488 2216 2034 2216 
z
M 1403 2484 
Q 997 2584 770 2862 
Q 544 3141 544 3541 
Q 544 4100 942 4425 
Q 1341 4750 2034 4750 
Q 2731 4750 3128 4425 
Q 3525 4100 3525 3541 
Q 3525 3141 3298 2862 
Q 3072 2584 2669 2484 
Q 3125 2378 3379 2068 
Q 3634 1759 3634 1313 
Q 3634 634 3220 271 
Q 2806 -91 2034 -91 
Q 1263 -91 848 271 
Q 434 634 434 1313 
Q 434 1759 690 2068 
Q 947 2378 1403 2484 
z
M 1172 3481 
Q 1172 3119 1398 2916 
Q 1625 2713 2034 2713 
Q 2441 2713 2670 2916 
Q 2900 3119 2900 3481 
Q 2900 3844 2670 4047 
Q 2441 4250 2034 4250 
Q 1625 4250 1398 4047 
Q 1172 3844 1172 3481 
z
" transform="scale(0.015625)"/>
       </defs>
       <use xlink:href="#DejaVuSans-30"/>
       <use xlink:href="#DejaVuSans-2e" x="63.623047"/>
       <use xlink:href="#DejaVuSans-38" x="95.410156"/>
      </g>
     </g>
    </g>
    <g id="xtick_6">
     <g id="line2d_6">
      <path d="M 470.820248 480.6 
L 470.820248 64.8 
" clip-path="url(#pcc938c1e1b)" style="fill: none; stroke: #cccccc; stroke-width: 1.5; stroke-linecap: round"/>
     </g>
     <g id="text_6">
      <!-- 1.0 -->
      <g style="fill: #262626" transform="translate(457.70017 505.637422)scale(0.165 -0.165)">
       <defs>
        <path id="DejaVuSans-31" d="M 794 531 
L 1825 531 
L 1825 4091 
L 703 3866 
L 703 4441 
L 1819 4666 
L 2450 4666 
L 2450 531 
L 3481 531 
L 3481 0 
L 794 0 
L 794 531 
z
" transform="scale(0.015625)"/>
       </defs>
       <use xlink:href="#DejaVuSans-31"/>
       <use xlink:href="#DejaVuSans-2e" x="63.623047"/>
       <use xlink:href="#DejaVuSans-30" x="95.410156"/>
      </g>
     </g>
    </g>
    <g id="text_7">
     <!-- $s$ -->
     <g style="fill: #262626" transform="translate(271.98 526.746094)scale(0.18 -0.18)">
      <defs>
       <path id="DejaVuSans-Oblique-73" d="M 3200 3397 
L 3091 2853 
Q 2863 2978 2609 3040 
Q 2356 3103 2088 3103 
Q 1634 3103 1373 2948 
Q 1113 2794 1113 2528 
Q 1113 2219 1719 2053 
Q 1766 2041 1788 2034 
L 1972 1978 
Q 2547 1819 2739 1644 
Q 2931 1469 2931 1166 
Q 2931 609 2489 259 
Q 2047 -91 1331 -91 
Q 1053 -91 747 -37 
Q 441 16 72 128 
L 184 722 
Q 500 559 806 475 
Q 1113 391 1394 391 
Q 1816 391 2080 572 
Q 2344 753 2344 1031 
Q 2344 1331 1650 1516 
L 1591 1531 
L 1394 1581 
Q 956 1697 753 1886 
Q 550 2075 550 2369 
Q 550 2928 970 3256 
Q 1391 3584 2113 3584 
Q 2397 3584 2667 3537 
Q 2938 3491 3200 3397 
z
" transform="scale(0.015625)"/>
      </defs>
      <use xlink:href="#DejaVuSans-Oblique-73"/>
     </g>
    </g>
   </g>
   <g id="matplotlib.axis_2">
    <g id="ytick_1">
     <g id="line2d_7">
      <path d="M 67.5 461.7 
L 486 461.7 
" clip-path="url(#pcc938c1e1b)" style="fill: none; stroke: #cccccc; stroke-width: 1.5; stroke-linecap: round"/>
     </g>
     <g id="text_8">
      <!-- 0.0 -->
      <g style="fill: #262626" transform="translate(28.759844 467.968711)scale(0.165 -0.165)">
       <use xlink:href="#DejaVuSans-30"/>
       <use xlink:href="#DejaVuSans-2e" x="63.623047"/>
       <use xlink:href="#DejaVuSans-30" x="95.410156"/>
      </g>
     </g>
    </g>
    <g id="ytick_2">
     <g id="line2d_8">
      <path d="M 67.5 386.1 
L 486 386.1 
" clip-path="url(#pcc938c1e1b)" style="fill: none; stroke: #cccccc; stroke-width: 1.5; stroke-linecap: round"/>
     </g>
     <g id="text_9">
      <!-- 0.2 -->
      <g style="fill: #262626" transform="translate(28.759844 392.368711)scale(0.165 -0.165)">
       <use xlink:href="#DejaVuSans-30"/>
       <use xlink:href="#DejaVuSans-2e" x="63.623047"/>
       <use xlink:href="#DejaVuSans-32" x="95.410156"/>
      </g>
     </g>
    </g>
    <g id="ytick_3">
     <g id="line2d_9">
      <path d="M 67.5 310.5 
L 486 310.5 
" clip-path="url(#pcc938c1e1b)" style="fill: none; stroke: #cccccc; stroke-width: 1.5; stroke-linecap: round"/>
     </g>
     <g id="text_10">
      <!-- 0.4 -->
      <g style="fill: #262626" transform="translate(28.759844 316.768711)scale(0.165 -0.165)">
       <use xlink:href="#DejaVuSans-30"/>
       <use xlink:href="#DejaVuSans-2e" x="63.623047"/>
       <use xlink:href="#DejaVuSans-34" x="95.410156"/>
      </g>
     </g>
    </g>
    <g id="ytick_4">
     <g id="line2d_10">
      <path d="M 67.5 234.9 
L 486 234.9 
" clip-path="url(#pcc938c1e1b)" style="fill: none; stroke: #cccccc; stroke-width: 1.5; stroke-linecap: round"/>
     </g>
     <g id="text_11">
      <!-- 0.6 -->
      <g style="fill: #262626" transform="translate(28.759844 241.168711)scale(0.165 -0.165)">
       <use xlink:href="#DejaVuSans-30"/>
       <use xlink:href="#DejaVuSans-2e" x="63.623047"/>
       <use xlink:href="#DejaVuSans-36" x="95.410156"/>
      </g>
     </g>
    </g>
    <g id="ytick_5">
     <g id="line2d_11">
      <path d="M 67.5 159.3 
L 486 159.3 
" clip-path="url(#pcc938c1e1b)" style="fill: none; stroke: #cccccc; stroke-width: 1.5; stroke-linecap: round"/>
     </g>
     <g id="text_12">
      <!-- 0.8 -->
      <g style="fill: #262626" transform="translate(28.759844 165.568711)scale(0.165 -0.165)">
       <use xlink:href="#DejaVuSans-30"/>
       <use xlink:href="#DejaVuSans-2e" x="63.623047"/>
       <use xlink:href="#DejaVuSans-38" x="95.410156"/>
      </g>
     </g>
    </g>
    <g id="ytick_6">
     <g id="line2d_12">
      <path d="M 67.5 83.7 
L 486 83.7 
" clip-path="url(#pcc938c1e1b)" style="fill: none; stroke: #cccccc; stroke-width: 1.5; stroke-linecap: round"/>
     </g>
     <g id="text_13">
      <!-- 1.0 -->
      <g style="fill: #262626" transform="translate(28.759844 89.968711)scale(0.165 -0.165)">
       <use xlink:href="#DejaVuSans-31"/>
       <use xlink:href="#DejaVuSans-2e" x="63.623047"/>
       <use xlink:href="#DejaVuSans-30" x="95.410156"/>
      </g>
     </g>
    </g>
    <g id="text_14">
     <!-- $f(s)$ -->
     <g style="fill: #262626" transform="translate(21.016406 287.64)rotate(-90)scale(0.18 -0.18)">
      <defs>
       <path id="DejaVuSans-Oblique-66" d="M 3059 4863 
L 2969 4384 
L 2419 4384 
Q 2106 4384 1964 4261 
Q 1822 4138 1753 3809 
L 1691 3500 
L 2638 3500 
L 2553 3053 
L 1606 3053 
L 1013 0 
L 434 0 
L 1031 3053 
L 481 3053 
L 563 3500 
L 1113 3500 
L 1159 3744 
Q 1278 4363 1576 4613 
Q 1875 4863 2516 4863 
L 3059 4863 
z
" transform="scale(0.015625)"/>
       <path id="DejaVuSans-28" d="M 1984 4856 
Q 1566 4138 1362 3434 
Q 1159 2731 1159 2009 
Q 1159 1288 1364 580 
Q 1569 -128 1984 -844 
L 1484 -844 
Q 1016 -109 783 600 
Q 550 1309 550 2009 
Q 550 2706 781 3412 
Q 1013 4119 1484 4856 
L 1984 4856 
z
" transform="scale(0.015625)"/>
       <path id="DejaVuSans-29" d="M 513 4856 
L 1013 4856 
Q 1481 4119 1714 3412 
Q 1947 2706 1947 2009 
Q 1947 1309 1714 600 
Q 1481 -109 1013 -844 
L 513 -844 
Q 928 -128 1133 580 
Q 1338 1288 1338 2009 
Q 1338 2731 1133 3434 
Q 928 4138 513 4856 
z
" transform="scale(0.015625)"/>
      </defs>
      <use xlink:href="#DejaVuSans-Oblique-66" transform="translate(0 0.015625)"/>
      <use xlink:href="#DejaVuSans-28" transform="translate(35.205078 0.015625)"/>
      <use xlink:href="#DejaVuSans-Oblique-73" transform="translate(74.21875 0.015625)"/>
      <use xlink:href="#DejaVuSans-29" transform="translate(126.318359 0.015625)"/>
     </g>
    </g>
   </g>
   <g id="line2d_13">
    <path d="M 86.522727 461.7 
L 90.365702 461.6622 
L 94.208678 461.5488 
L 98.051653 461.3598 
L 101.894628 461.0952 
L 105.737603 460.755 
L 109.580579 460.3392 
L 113.423554 459.8478 
L 117.266529 459.2808 
L 121.109504 458.6382 
L 124.952479 457.92 
L 128.795455 457.1262 
L 132.63843 456.2568 
L 136.481405 455.3118 
L 140.32438 454.2912 
L 144.167355 453.195 
L 148.010331 452.0232 
L 151.853306 450.7758 
L 155.696281 449.4528 
L 159.539256 448.0542 
L 163.382231 446.58 
L 167.225207 445.0302 
L 171.068182 443.4048 
L 174.911157 441.7038 
L 178.754132 439.9272 
L 182.597107 438.075 
L 186.440083 436.1472 
L 190.283058 434.1438 
L 194.126033 432.0648 
L 197.969008 429.9102 
L 201.811983 427.68 
L 205.654959 425.3742 
L 209.497934 422.9928 
L 213.340909 420.5358 
L 217.183884 418.0032 
L 221.02686 415.395 
L 224.869835 412.7112 
L 228.71281 409.9518 
L 232.555785 407.1168 
L 236.39876 404.2062 
L 240.241736 401.22 
L 244.084711 398.1582 
L 247.927686 395.0208 
L 251.770661 391.8078 
L 255.613636 388.5192 
L 259.456612 385.155 
L 263.299587 381.7152 
L 267.142562 378.1998 
L 270.985537 374.6088 
L 274.828512 370.9422 
L 278.671488 367.2 
L 282.514463 363.3822 
L 286.357438 359.4888 
L 290.200413 355.5198 
L 294.043388 351.4752 
L 297.886364 347.355 
L 301.729339 343.1592 
L 305.572314 338.8878 
L 309.415289 334.5408 
L 313.258264 330.1182 
L 317.10124 325.62 
L 320.944215 321.0462 
L 324.78719 316.3968 
L 328.630165 311.6718 
L 332.47314 306.8712 
L 336.316116 301.995 
L 340.159091 297.0432 
L 344.002066 292.0158 
L 347.845041 286.9128 
L 351.688017 281.7342 
L 355.530992 276.48 
L 359.373967 271.1502 
L 363.216942 265.7448 
L 367.059917 260.2638 
L 370.902893 254.7072 
L 374.745868 249.075 
L 378.588843 243.3672 
L 382.431818 237.5838 
L 386.274793 231.7248 
L 390.117769 225.7902 
L 393.960744 219.78 
L 397.803719 213.6942 
L 401.646694 207.5328 
L 405.489669 201.2958 
L 409.332645 194.9832 
L 413.17562 188.595 
L 417.018595 182.1312 
L 420.86157 175.5918 
L 424.704545 168.9768 
L 428.547521 162.2862 
L 432.390496 155.52 
L 436.233471 148.6782 
L 440.076446 141.7608 
L 443.919421 134.7678 
L 447.762397 127.6992 
L 451.605372 120.555 
L 455.448347 113.3352 
L 459.291322 106.0398 
L 463.134298 98.6688 
L 466.977273 91.2222 
" clip-path="url(#pcc938c1e1b)" style="fill: none; stroke-dasharray: 8.325,3.6; stroke-dashoffset: 0; stroke: #4c72b0; stroke-width: 2.25"/>
   </g>
   <g id="line2d_14">
    <path d="M 86.522727 83.7 
L 90.365702 91.2222 
L 94.208678 98.6688 
L 98.051653 106.0398 
L 101.894628 113.3352 
L 105.737603 120.555 
L 109.580579 127.6992 
L 113.423554 134.7678 
L 117.266529 141.7608 
L 121.109504 148.6782 
L 124.952479 155.52 
L 128.795455 162.2862 
L 132.63843 168.9768 
L 136.481405 175.5918 
L 140.32438 182.1312 
L 144.167355 188.595 
L 148.010331 194.9832 
L 151.853306 201.2958 
L 155.696281 207.5328 
L 159.539256 213.6942 
L 163.382231 219.78 
L 167.225207 225.7902 
L 171.068182 231.7248 
L 174.911157 237.5838 
L 178.754132 243.3672 
L 182.597107 249.075 
L 186.440083 254.7072 
L 190.283058 260.2638 
L 194.126033 265.7448 
L 197.969008 271.1502 
L 201.811983 276.48 
L 205.654959 281.7342 
L 209.497934 286.9128 
L 213.340909 292.0158 
L 217.183884 297.0432 
L 221.02686 301.995 
L 224.869835 306.8712 
L 228.71281 311.6718 
L 232.555785 316.3968 
L 236.39876 321.0462 
L 240.241736 325.62 
L 244.084711 330.1182 
L 247.927686 334.5408 
L 251.770661 338.8878 
L 255.613636 343.1592 
L 259.456612 347.355 
L 263.299587 351.4752 
L 267.142562 355.5198 
L 270.985537 359.4888 
L 274.828512 363.3822 
L 278.671488 367.2 
L 282.514463 370.9422 
L 286.357438 374.6088 
L 290.200413 378.1998 
L 294.043388 381.7152 
L 297.886364 385.155 
L 301.729339 388.5192 
L 305.572314 391.8078 
L 309.415289 395.0208 
L 313.258264 398.1582 
L 317.10124 401.22 
L 320.944215 404.2062 
L 324.78719 407.1168 
L 328.630165 409.9518 
L 332.47314 412.7112 
L 336.316116 415.395 
L 340.159091 418.0032 
L 344.002066 420.5358 
L 347.845041 422.9928 
L 351.688017 425.3742 
L 355.530992 427.68 
L 359.373967 429.9102 
L 363.216942 432.0648 
L 367.059917 434.1438 
L 370.902893 436.1472 
L 374.745868 438.075 
L 378.588843 439.9272 
L 382.431818 441.7038 
L 386.274793 443.4048 
L 390.117769 445.0302 
L 393.960744 446.58 
L 397.803719 448.0542 
L 401.646694 449.4528 
L 405.489669 450.7758 
L 409.332645 452.0232 
L 413.17562 453.195 
L 417.018595 454.2912 
L 420.86157 455.3118 
L 424.704545 456.2568 
L 428.547521 457.1262 
L 432.390496 457.92 
L 436.233471 458.6382 
L 440.076446 459.2808 
L 443.919421 459.8478 
L 447.762397 460.3392 
L 451.605372 460.755 
L 455.448347 461.0952 
L 459.291322 461.3598 
L 463.134298 461.5488 
L 466.977273 461.6622 
" clip-path="url(#pcc938c1e1b)" style="fill: none; stroke-dasharray: 8.325,3.6; stroke-dashoffset: 0; stroke: #dd8452; stroke-width: 2.25"/>
   </g>
   <g id="patch_3">
    <path d="M 67.5 480.6 
L 67.5 64.8 
" style="fill: none; stroke: #cccccc; stroke-width: 1.875; stroke-linejoin: miter; stroke-linecap: square"/>
   </g>
   <g id="patch_4">
    <path d="M 486 480.6 
L 486 64.8 
" style="fill: none; stroke: #cccccc; stroke-width: 1.875; stroke-linejoin: miter; stroke-linecap: square"/>
   </g>
   <g id="patch_5">
    <path d="M 67.5 480.6 
L 486 480.6 
" style="fill: none; stroke: #cccccc; stroke-width: 1.875; stroke-linejoin: miter; stroke-linecap: square"/>
   </g>
   <g id="patch_6">
    <path d="M 67.5 64.8 
L 486 64.8 
" style="fill: none; stroke: #cccccc; stroke-width: 1.875; stroke-linejoin: miter; stroke-linecap: square"/>
   </g>
   <g id="text_15">
    <!-- Relative Phase Permeability -->
    <g style="fill: #262626" transform="translate(151.792031 58.8)scale(0.18 -0.18)">
     <defs>
      <path id="DejaVuSans-52" d="M 2841 2188 
Q 3044 2119 3236 1894 
Q 3428 1669 3622 1275 
L 4263 0 
L 3584 0 
L 2988 1197 
Q 2756 1666 2539 1819 
Q 2322 1972 1947 1972 
L 1259 1972 
L 1259 0 
L 628 0 
L 628 4666 
L 2053 4666 
Q 2853 4666 3247 4331 
Q 3641 3997 3641 3322 
Q 3641 2881 3436 2590 
Q 3231 2300 2841 2188 
z
M 1259 4147 
L 1259 2491 
L 2053 2491 
Q 2509 2491 2742 2702 
Q 2975 2913 2975 3322 
Q 2975 3731 2742 3939 
Q 2509 4147 2053 4147 
L 1259 4147 
z
" transform="scale(0.015625)"/>
      <path id="DejaVuSans-65" d="M 3597 1894 
L 3597 1613 
L 953 1613 
Q 991 1019 1311 708 
Q 1631 397 2203 397 
Q 2534 397 2845 478 
Q 3156 559 3463 722 
L 3463 178 
Q 3153 47 2828 -22 
Q 2503 -91 2169 -91 
Q 1331 -91 842 396 
Q 353 884 353 1716 
Q 353 2575 817 3079 
Q 1281 3584 2069 3584 
Q 2775 3584 3186 3129 
Q 3597 2675 3597 1894 
z
M 3022 2063 
Q 3016 2534 2758 2815 
Q 2500 3097 2075 3097 
Q 1594 3097 1305 2825 
Q 1016 2553 972 2059 
L 3022 2063 
z
" transform="scale(0.015625)"/>
      <path id="DejaVuSans-6c" d="M 603 4863 
L 1178 4863 
L 1178 0 
L 603 0 
L 603 4863 
z
" transform="scale(0.015625)"/>
      <path id="DejaVuSans-61" d="M 2194 1759 
Q 1497 1759 1228 1600 
Q 959 1441 959 1056 
Q 959 750 1161 570 
Q 1363 391 1709 391 
Q 2188 391 2477 730 
Q 2766 1069 2766 1631 
L 2766 1759 
L 2194 1759 
z
M 3341 1997 
L 3341 0 
L 2766 0 
L 2766 531 
Q 2569 213 2275 61 
Q 1981 -91 1556 -91 
Q 1019 -91 701 211 
Q 384 513 384 1019 
Q 384 1609 779 1909 
Q 1175 2209 1959 2209 
L 2766 2209 
L 2766 2266 
Q 2766 2663 2505 2880 
Q 2244 3097 1772 3097 
Q 1472 3097 1187 3025 
Q 903 2953 641 2809 
L 641 3341 
Q 956 3463 1253 3523 
Q 1550 3584 1831 3584 
Q 2591 3584 2966 3190 
Q 3341 2797 3341 1997 
z
" transform="scale(0.015625)"/>
      <path id="DejaVuSans-74" d="M 1172 4494 
L 1172 3500 
L 2356 3500 
L 2356 3053 
L 1172 3053 
L 1172 1153 
Q 1172 725 1289 603 
Q 1406 481 1766 481 
L 2356 481 
L 2356 0 
L 1766 0 
Q 1100 0 847 248 
Q 594 497 594 1153 
L 594 3053 
L 172 3053 
L 172 3500 
L 594 3500 
L 594 4494 
L 1172 4494 
z
" transform="scale(0.015625)"/>
      <path id="DejaVuSans-69" d="M 603 3500 
L 1178 3500 
L 1178 0 
L 603 0 
L 603 3500 
z
M 603 4863 
L 1178 4863 
L 1178 4134 
L 603 4134 
L 603 4863 
z
" transform="scale(0.015625)"/>
      <path id="DejaVuSans-76" d="M 191 3500 
L 800 3500 
L 1894 563 
L 2988 3500 
L 3597 3500 
L 2284 0 
L 1503 0 
L 191 3500 
z
" transform="scale(0.015625)"/>
      <path id="DejaVuSans-20" transform="scale(0.015625)"/>
      <path id="DejaVuSans-50" d="M 1259 4147 
L 1259 2394 
L 2053 2394 
Q 2494 2394 2734 2622 
Q 2975 2850 2975 3272 
Q 2975 3691 2734 3919 
Q 2494 4147 2053 4147 
L 1259 4147 
z
M 628 4666 
L 2053 4666 
Q 2838 4666 3239 4311 
Q 3641 3956 3641 3272 
Q 3641 2581 3239 2228 
Q 2838 1875 2053 1875 
L 1259 1875 
L 1259 0 
L 628 0 
L 628 4666 
z
" transform="scale(0.015625)"/>
      <path id="DejaVuSans-68" d="M 3513 2113 
L 3513 0 
L 2938 0 
L 2938 2094 
Q 2938 2591 2744 2837 
Q 2550 3084 2163 3084 
Q 1697 3084 1428 2787 
Q 1159 2491 1159 1978 
L 1159 0 
L 581 0 
L 581 4863 
L 1159 4863 
L 1159 2956 
Q 1366 3272 1645 3428 
Q 1925 3584 2291 3584 
Q 2894 3584 3203 3211 
Q 3513 2838 3513 2113 
z
" transform="scale(0.015625)"/>
      <path id="DejaVuSans-73" d="M 2834 3397 
L 2834 2853 
Q 2591 2978 2328 3040 
Q 2066 3103 1784 3103 
Q 1356 3103 1142 2972 
Q 928 2841 928 2578 
Q 928 2378 1081 2264 
Q 1234 2150 1697 2047 
L 1894 2003 
Q 2506 1872 2764 1633 
Q 3022 1394 3022 966 
Q 3022 478 2636 193 
Q 2250 -91 1575 -91 
Q 1294 -91 989 -36 
Q 684 19 347 128 
L 347 722 
Q 666 556 975 473 
Q 1284 391 1588 391 
Q 1994 391 2212 530 
Q 2431 669 2431 922 
Q 2431 1156 2273 1281 
Q 2116 1406 1581 1522 
L 1381 1569 
Q 847 1681 609 1914 
Q 372 2147 372 2553 
Q 372 3047 722 3315 
Q 1072 3584 1716 3584 
Q 2034 3584 2315 3537 
Q 2597 3491 2834 3397 
z
" transform="scale(0.015625)"/>
      <path id="DejaVuSans-72" d="M 2631 2963 
Q 2534 3019 2420 3045 
Q 2306 3072 2169 3072 
Q 1681 3072 1420 2755 
Q 1159 2438 1159 1844 
L 1159 0 
L 581 0 
L 581 3500 
L 1159 3500 
L 1159 2956 
Q 1341 3275 1631 3429 
Q 1922 3584 2338 3584 
Q 2397 3584 2469 3576 
Q 2541 3569 2628 3553 
L 2631 2963 
z
" transform="scale(0.015625)"/>
      <path id="DejaVuSans-6d" d="M 3328 2828 
Q 3544 3216 3844 3400 
Q 4144 3584 4550 3584 
Q 5097 3584 5394 3201 
Q 5691 2819 5691 2113 
L 5691 0 
L 5113 0 
L 5113 2094 
Q 5113 2597 4934 2840 
Q 4756 3084 4391 3084 
Q 3944 3084 3684 2787 
Q 3425 2491 3425 1978 
L 3425 0 
L 2847 0 
L 2847 2094 
Q 2847 2600 2669 2842 
Q 2491 3084 2119 3084 
Q 1678 3084 1418 2786 
Q 1159 2488 1159 1978 
L 1159 0 
L 581 0 
L 581 3500 
L 1159 3500 
L 1159 2956 
Q 1356 3278 1631 3431 
Q 1906 3584 2284 3584 
Q 2666 3584 2933 3390 
Q 3200 3197 3328 2828 
z
" transform="scale(0.015625)"/>
      <path id="DejaVuSans-62" d="M 3116 1747 
Q 3116 2381 2855 2742 
Q 2594 3103 2138 3103 
Q 1681 3103 1420 2742 
Q 1159 2381 1159 1747 
Q 1159 1113 1420 752 
Q 1681 391 2138 391 
Q 2594 391 2855 752 
Q 3116 1113 3116 1747 
z
M 1159 2969 
Q 1341 3281 1617 3432 
Q 1894 3584 2278 3584 
Q 2916 3584 3314 3078 
Q 3713 2572 3713 1747 
Q 3713 922 3314 415 
Q 2916 -91 2278 -91 
Q 1894 -91 1617 61 
Q 1341 213 1159 525 
L 1159 0 
L 581 0 
L 581 4863 
L 1159 4863 
L 1159 2969 
z
" transform="scale(0.015625)"/>
      <path id="DejaVuSans-79" d="M 2059 -325 
Q 1816 -950 1584 -1140 
Q 1353 -1331 966 -1331 
L 506 -1331 
L 506 -850 
L 844 -850 
Q 1081 -850 1212 -737 
Q 1344 -625 1503 -206 
L 1606 56 
L 191 3500 
L 800 3500 
L 1894 763 
L 2988 3500 
L 3597 3500 
L 2059 -325 
z
" transform="scale(0.015625)"/>
     </defs>
     <use xlink:href="#DejaVuSans-52"/>
     <use xlink:href="#DejaVuSans-65" x="64.982422"/>
     <use xlink:href="#DejaVuSans-6c" x="126.505859"/>
     <use xlink:href="#DejaVuSans-61" x="154.289062"/>
     <use xlink:href="#DejaVuSans-74" x="215.568359"/>
     <use xlink:href="#DejaVuSans-69" x="254.777344"/>
     <use xlink:href="#DejaVuSans-76" x="282.560547"/>
     <use xlink:href="#DejaVuSans-65" x="341.740234"/>
     <use xlink:href="#DejaVuSans-20" x="403.263672"/>
     <use xlink:href="#DejaVuSans-50" x="435.050781"/>
     <use xlink:href="#DejaVuSans-68" x="495.353516"/>
     <use xlink:href="#DejaVuSans-61" x="558.732422"/>
     <use xlink:href="#DejaVuSans-73" x="620.011719"/>
     <use xlink:href="#DejaVuSans-65" x="672.111328"/>
     <use xlink:href="#DejaVuSans-20" x="733.634766"/>
     <use xlink:href="#DejaVuSans-50" x="765.421875"/>
     <use xlink:href="#DejaVuSans-65" x="822.099609"/>
     <use xlink:href="#DejaVuSans-72" x="883.623047"/>
     <use xlink:href="#DejaVuSans-6d" x="922.986328"/>
     <use xlink:href="#DejaVuSans-65" x="1020.398438"/>
     <use xlink:href="#DejaVuSans-61" x="1081.921875"/>
     <use xlink:href="#DejaVuSans-62" x="1143.201172"/>
     <use xlink:href="#DejaVuSans-69" x="1206.677734"/>
     <use xlink:href="#DejaVuSans-6c" x="1234.460938"/>
     <use xlink:href="#DejaVuSans-69" x="1262.244141"/>
     <use xlink:href="#DejaVuSans-74" x="1290.027344"/>
     <use xlink:href="#DejaVuSans-79" x="1329.236328"/>
    </g>
   </g>
   <g id="legend_1">
    <g id="patch_7">
     <path d="M 186.2475 126.473906 
L 367.2525 126.473906 
Q 370.5525 126.473906 370.5525 123.173906 
L 370.5525 76.35 
Q 370.5525 73.05 367.2525 73.05 
L 186.2475 73.05 
Q 182.9475 73.05 182.9475 76.35 
L 182.9475 123.173906 
Q 182.9475 126.473906 186.2475 126.473906 
z
" style="fill: #ffffff; opacity: 0.8; stroke: #cccccc; stroke-width: 1.5; stroke-linejoin: miter"/>
    </g>
    <g id="line2d_15">
     <path d="M 189.5475 86.415 
L 206.0475 86.415 
L 222.5475 86.415 
" style="fill: none; stroke-dasharray: 8.325,3.6; stroke-dashoffset: 0; stroke: #4c72b0; stroke-width: 2.25"/>
    </g>
    <g id="text_16">
     <!-- $f_1(s)$ - Nitrogen. -->
     <g style="fill: #262626" transform="translate(235.7475 92.19)scale(0.165 -0.165)">
      <defs>
       <path id="DejaVuSans-2d" d="M 313 2009 
L 1997 2009 
L 1997 1497 
L 313 1497 
L 313 2009 
z
" transform="scale(0.015625)"/>
       <path id="DejaVuSans-4e" d="M 628 4666 
L 1478 4666 
L 3547 763 
L 3547 4666 
L 4159 4666 
L 4159 0 
L 3309 0 
L 1241 3903 
L 1241 0 
L 628 0 
L 628 4666 
z
" transform="scale(0.015625)"/>
       <path id="DejaVuSans-6f" d="M 1959 3097 
Q 1497 3097 1228 2736 
Q 959 2375 959 1747 
Q 959 1119 1226 758 
Q 1494 397 1959 397 
Q 2419 397 2687 759 
Q 2956 1122 2956 1747 
Q 2956 2369 2687 2733 
Q 2419 3097 1959 3097 
z
M 1959 3584 
Q 2709 3584 3137 3096 
Q 3566 2609 3566 1747 
Q 3566 888 3137 398 
Q 2709 -91 1959 -91 
Q 1206 -91 779 398 
Q 353 888 353 1747 
Q 353 2609 779 3096 
Q 1206 3584 1959 3584 
z
" transform="scale(0.015625)"/>
       <path id="DejaVuSans-67" d="M 2906 1791 
Q 2906 2416 2648 2759 
Q 2391 3103 1925 3103 
Q 1463 3103 1205 2759 
Q 947 2416 947 1791 
Q 947 1169 1205 825 
Q 1463 481 1925 481 
Q 2391 481 2648 825 
Q 2906 1169 2906 1791 
z
M 3481 434 
Q 3481 -459 3084 -895 
Q 2688 -1331 1869 -1331 
Q 1566 -1331 1297 -1286 
Q 1028 -1241 775 -1147 
L 775 -588 
Q 1028 -725 1275 -790 
Q 1522 -856 1778 -856 
Q 2344 -856 2625 -561 
Q 2906 -266 2906 331 
L 2906 616 
Q 2728 306 2450 153 
Q 2172 0 1784 0 
Q 1141 0 747 490 
Q 353 981 353 1791 
Q 353 2603 747 3093 
Q 1141 3584 1784 3584 
Q 2172 3584 2450 3431 
Q 2728 3278 2906 2969 
L 2906 3500 
L 3481 3500 
L 3481 434 
z
" transform="scale(0.015625)"/>
       <path id="DejaVuSans-6e" d="M 3513 2113 
L 3513 0 
L 2938 0 
L 2938 2094 
Q 2938 2591 2744 2837 
Q 2550 3084 2163 3084 
Q 1697 3084 1428 2787 
Q 1159 2491 1159 1978 
L 1159 0 
L 581 0 
L 581 3500 
L 1159 3500 
L 1159 2956 
Q 1366 3272 1645 3428 
Q 1925 3584 2291 3584 
Q 2894 3584 3203 3211 
Q 3513 2838 3513 2113 
z
" transform="scale(0.015625)"/>
      </defs>
      <use xlink:href="#DejaVuSans-Oblique-66" transform="translate(0 0.015625)"/>
      <use xlink:href="#DejaVuSans-31" transform="translate(35.205078 -16.390625)scale(0.7)"/>
      <use xlink:href="#DejaVuSans-28" transform="translate(82.475586 0.015625)"/>
      <use xlink:href="#DejaVuSans-Oblique-73" transform="translate(121.489258 0.015625)"/>
      <use xlink:href="#DejaVuSans-29" transform="translate(173.588867 0.015625)"/>
      <use xlink:href="#DejaVuSans-20" transform="translate(212.602539 0.015625)"/>
      <use xlink:href="#DejaVuSans-2d" transform="translate(244.389648 0.015625)"/>
      <use xlink:href="#DejaVuSans-20" transform="translate(280.473633 0.015625)"/>
      <use xlink:href="#DejaVuSans-4e" transform="translate(312.260742 0.015625)"/>
      <use xlink:href="#DejaVuSans-69" transform="translate(387.06543 0.015625)"/>
      <use xlink:href="#DejaVuSans-74" transform="translate(414.848633 0.015625)"/>
      <use xlink:href="#DejaVuSans-72" transform="translate(454.057617 0.015625)"/>
      <use xlink:href="#DejaVuSans-6f" transform="translate(495.170898 0.015625)"/>
      <use xlink:href="#DejaVuSans-67" transform="translate(556.352539 0.015625)"/>
      <use xlink:href="#DejaVuSans-65" transform="translate(619.829102 0.015625)"/>
      <use xlink:href="#DejaVuSans-6e" transform="translate(681.352539 0.015625)"/>
      <use xlink:href="#DejaVuSans-2e" transform="translate(744.731445 0.015625)"/>
     </g>
    </g>
    <g id="line2d_16">
     <path d="M 189.5475 110.667422 
L 206.0475 110.667422 
L 222.5475 110.667422 
" style="fill: none; stroke-dasharray: 8.325,3.6; stroke-dashoffset: 0; stroke: #dd8452; stroke-width: 2.25"/>
    </g>
    <g id="text_17">
     <!-- $f_2(s)$ - Pentane. -->
     <g style="fill: #262626" transform="translate(235.7475 116.442422)scale(0.165 -0.165)">
      <use xlink:href="#DejaVuSans-Oblique-66" transform="translate(0 0.015625)"/>
      <use xlink:href="#DejaVuSans-32" transform="translate(35.205078 -16.390625)scale(0.7)"/>
      <use xlink:href="#DejaVuSans-28" transform="translate(82.475586 0.015625)"/>
      <use xlink:href="#DejaVuSans-Oblique-73" transform="translate(121.489258 0.015625)"/>
      <use xlink:href="#DejaVuSans-29" transform="translate(173.588867 0.015625)"/>
      <use xlink:href="#DejaVuSans-20" transform="translate(212.602539 0.015625)"/>
      <use xlink:href="#DejaVuSans-2d" transform="translate(244.389648 0.015625)"/>
      <use xlink:href="#DejaVuSans-20" transform="translate(280.473633 0.015625)"/>
      <use xlink:href="#DejaVuSans-50" transform="translate(312.260742 0.015625)"/>
      <use xlink:href="#DejaVuSans-65" transform="translate(372.563477 0.015625)"/>
      <use xlink:href="#DejaVuSans-6e" transform="translate(434.086914 0.015625)"/>
      <use xlink:href="#DejaVuSans-74" transform="translate(497.46582 0.015625)"/>
      <use xlink:href="#DejaVuSans-61" transform="translate(536.674805 0.015625)"/>
      <use xlink:href="#DejaVuSans-6e" transform="translate(597.954102 0.015625)"/>
      <use xlink:href="#DejaVuSans-65" transform="translate(661.333008 0.015625)"/>
      <use xlink:href="#DejaVuSans-2e" transform="translate(722.856445 0.015625)"/>
     </g>
    </g>
   </g>
  </g>
 </g>
 <defs>
  <clipPath id="pcc938c1e1b">
   <rect x="67.5" y="64.8" width="418.5" height="415.8"/>
  </clipPath>
 </defs>
</svg>
