<svg viewBox="-0.5 -0.5 16 16" fill="none" xmlns="http://www.w3.org/2000/svg" id="Favourite-Book--Streamline-Iconoir" height="16" width="16" stroke="currentColor" stroke-width="1">
  <desc>
    Favourite Book Streamline Icon: https://streamlinehq.com
  </desc>
  <path d="M1.46925 12.7769375V2.2230625c0 -0.8326875 0.675 -1.5076875 1.5076875 -1.5076875h10.101500000000001c0.24987499999999999 0 0.4523125 0.2025 0.4523125 0.4523125v9.8861875" stroke-linecap="round" ></path>
  <path d="M10.515375 5.0724374999999995c0 0.45337500000000003 -0.179 0.8888125 -0.4988125 1.2109375 -0.7360625 0.7418125 -1.449875 1.51525 -2.2134375 2.23 -0.17500000000000002 0.1615 -0.45262499999999994 0.155625 -0.620125 -0.013187500000000001l-2.1996875 -2.2168125c-0.6649375000000001 -0.6700625 -0.6649375000000001 -1.7518125000000002 0 -2.421875 0.6714375 -0.6766875 1.76525 -0.6766875 2.4366250000000003 0l0.08 0.0805625 0.079875 -0.0805625c0.322 -0.3245625 0.7604374999999999 -0.507625 1.218375 -0.507625 0.4580625 0 0.8965 0.1830625 1.218375 0.507625 0.31981250000000006 0.322125 0.4988125 0.7575624999999999 0.4988125 1.2109375Z" stroke-linejoin="round" ></path>
  <path d="M2.9769375 11.26925h10.5538125" stroke-linecap="round" ></path>
  <path d="M2.9769375 14.284625h10.5538125" stroke-linecap="round" ></path>
  <path d="M2.9769375 14.284625c-0.8326875 0 -1.5076875 -0.675 -1.5076875 -1.5076875s0.675 -1.5076875 1.5076875 -1.5076875" stroke-linecap="round" stroke-linejoin="round" ></path>
</svg>
